<?xml version="1.0" encoding="utf-8"?>
<!-- Generator: Adobe Illustrator 24.3.0, SVG Export Plug-In . SVG Version: 6.00 Build 0)  -->
<svg version="1.1" id="Layer_1" xmlns="http://www.w3.org/2000/svg" xmlns:xlink="http://www.w3.org/1999/xlink" x="0px" y="0px"
	 viewBox="0 0 728 350" style="enable-background:new 0 0 728 350;" xml:space="preserve">
<style type="text/css">
	.st0{clip-path:url(#SVGID_2_);}
	.st1{fill:#FAFCFD;}
	.st2{fill:#F5BD22;}
	.st3{fill:#F55658;}
	.st4{fill:#FFDA55;filter:url(#Adobe_OpacityMaskFilter);}
	.st5{mask:url(#mask0_1_);}
	.st6{fill:none;stroke:#F5BD22;stroke-width:4;}
	.st7{fill:#17AFB0;}
	.st8{fill:#FFDA55;filter:url(#Adobe_OpacityMaskFilter_1_);}
	.st9{mask:url(#mask1_1_);}
	.st10{fill:none;stroke:#6ACCCB;stroke-width:4;}
	.st11{fill:none;stroke:url(#SVGID_3_);stroke-width:12;}
	.st12{fill:#15AEAF;}
	.st13{fill-rule:evenodd;clip-rule:evenodd;fill:#0A0702;}
	.st14{fill-rule:evenodd;clip-rule:evenodd;fill:#0B0704;}
	.st15{fill:#FAFCFD;stroke:#0A0702;stroke-width:4;}
	.st16{fill:#B97352;}
	.st17{fill:#221009;}
	.st18{fill:#E3C3AC;}
	.st19{fill-rule:evenodd;clip-rule:evenodd;fill:#221009;}
	.st20{fill-rule:evenodd;clip-rule:evenodd;}
	.st21{fill:#EDEDED;}
	.st22{fill:#FE3E3E;stroke:#BC2D2D;stroke-width:4;}
	.st23{fill:#596A96;stroke:#2E335F;stroke-width:4;}
	.st24{fill:none;stroke:#2E335F;stroke-width:4;}
	.st25{fill:#FFFFFF;}
	.st26{fill:none;stroke:#BFBFBF;stroke-width:3;}
	.st27{fill-rule:evenodd;clip-rule:evenodd;fill:#F55355;}
	.st28{fill:#F55355;}
	.st29{fill:none;stroke:#3152A9;stroke-width:5;}
	.st30{fill:#3152A9;}
	.st31{fill:none;}
	.st32{fill:none;stroke:#221009;stroke-width:3;stroke-linecap:round;stroke-miterlimit:10;}
</style>
<g>
	<defs>
		<rect id="SVGID_1_" width="728" height="350"/>
	</defs>
	<clipPath id="SVGID_2_">
		<use xlink:href="#SVGID_1_"  style="overflow:visible;"/>
	</clipPath>
	<g class="st0">
		<rect class="st1" width="728" height="350"/>
		<rect x="155" y="135" class="st2" width="37" height="112"/>
		<rect x="208.5" y="96" class="st2" width="37" height="151"/>
		<rect x="262" y="169" class="st2" width="37" height="129"/>
		<path class="st3" d="M244.7,368.9c-60,2.6-169.3-25.6-126.9-159.6C173.7,211.2,277.5,245.7,244.7,368.9z"/>
		<defs>
			<filter id="Adobe_OpacityMaskFilter" filterUnits="userSpaceOnUse" x="96.1" y="207.1" width="145.6" height="199.6">
				<feColorMatrix  type="matrix" values="1 0 0 0 0  0 1 0 0 0  0 0 1 0 0  0 0 0 1 0"/>
			</filter>
		</defs>
		<mask maskUnits="userSpaceOnUse" x="96.1" y="207.1" width="145.6" height="199.6" id="mask0_1_">
			<path class="st4" d="M244.7,368.9c-60,2.6-169.3-25.6-126.9-159.6C173.7,211.2,277.5,245.7,244.7,368.9z"/>
		</mask>
		<g class="st5">
			<path class="st6" d="M118.2,208.1l22.1,35.8 M240,405.6l-43.1-69.9 M140.3,243.9l-44.1-1 M140.3,243.9l20,32.5 M160.3,276.3
				l15.5-66.4 M160.3,276.3l15.6,25.3 M175.9,301.6l-78.3,3.1 M175.9,301.6l21,34.1 M196.9,335.7l24.8-91.9"/>
		</g>
		<path class="st7" d="M399.6,295c-22-55.8-30.9-168.4,109.5-172C525.6,176.5,526.8,285.8,399.6,295z"/>
		<defs>
			<filter id="Adobe_OpacityMaskFilter_1_" filterUnits="userSpaceOnUse" x="361.9" y="112.9" width="165.8" height="190.9">
				<feColorMatrix  type="matrix" values="1 0 0 0 0  0 1 0 0 0  0 0 1 0 0  0 0 0 1 0"/>
			</filter>
		</defs>
		<mask maskUnits="userSpaceOnUse" x="361.9" y="112.9" width="165.8" height="190.9" id="mask1_1_">
			<path class="st8" d="M399.6,295c-22-55.8-30.9-168.4,109.5-172C525.6,176.5,526.8,285.8,399.6,295z"/>
		</mask>
		<g class="st9">
			<path class="st10" d="M510.4,123l-26.6,32.5 M363.4,302.5l52-63.5 M483.8,155.5l-13.4-42 M483.8,155.5L459.7,185 M459.7,185
				l67.8-7 M459.7,185l-18.8,23 M440.8,208l-28.4-73 M440.8,208l-25.4,31 M415.4,239l95-6.5"/>
		</g>
		
			<linearGradient id="SVGID_3_" gradientUnits="userSpaceOnUse" x1="557.5607" y1="455.839" x2="548.6008" y2="140.813" gradientTransform="matrix(1 0 0 -1 0 352)">
			<stop  offset="0" style="stop-color:#F5BD22"/>
			<stop  offset="1" style="stop-color:#F55658"/>
		</linearGradient>
		<path class="st11" d="M413.6,34.7c-44.4,1.4-76.7-39.4-75.2-54.2l24.5,5.4l369.2-84.7l37.7,133.4c1.3,62.6-12.4,206-12.4,179.4
			c0-33.3-39.2-94.5-109-98.8c-69.8-4.3-44.4-44-88.4-76.2C516.1,6.7,469.1,33,413.6,34.7z"/>
		<path class="st12" d="M67,61.4c0-0.5-0.2-0.9-0.5-1.2c-0.3-0.3-0.8-0.6-1.2-0.6l-4.8-0.8c-0.2,0-0.4-0.1-0.6-0.3
			c-0.2-0.2-0.2-0.4-0.3-0.6c-0.1-0.6-0.2-1.2-0.3-1.8c0-0.2,0-0.4,0.1-0.6c0.1-0.2,0.2-0.4,0.4-0.5l4.3-2.4c0.4-0.2,0.8-0.6,0.9-1
			c0.2-0.4,0.2-0.9,0-1.4l-0.7-2c-0.2-0.4-0.5-0.8-0.9-1c-0.4-0.2-0.9-0.3-1.4-0.2l-4.8,0.9c-0.2,0-0.4,0-0.6-0.1
			c-0.2-0.1-0.4-0.2-0.5-0.4c-0.3-0.5-0.6-1.1-0.9-1.6c-0.1-0.2-0.2-0.4-0.2-0.6c0-0.2,0.1-0.4,0.2-0.6l3.2-3.7
			c0.3-0.3,0.5-0.8,0.5-1.3c0-0.5-0.1-0.9-0.4-1.3l-1.4-1.7c-0.3-0.4-0.7-0.6-1.2-0.7c-0.5-0.1-0.9,0-1.3,0.3l-4.2,2.5
			C50.2,38.9,50,39,49.8,39c-0.2,0-0.4-0.1-0.6-0.3c-0.5-0.4-0.9-0.8-1.4-1.2c-0.2-0.1-0.3-0.3-0.4-0.5c-0.1-0.2,0-0.4,0-0.6
			l1.7-4.6c0.2-0.4,0.2-0.9,0.1-1.4c-0.1-0.5-0.5-0.8-0.9-1.1l-1.9-1.1c-0.4-0.2-0.9-0.3-1.4-0.2c-0.5,0.1-0.9,0.4-1.2,0.7l-3.1,3.8
			c-0.1,0.2-0.3,0.3-0.5,0.3c-0.2,0.1-0.4,0-0.6,0c-0.1,0-1.1-0.4-1.8-0.7c-0.2-0.1-0.4-0.2-0.5-0.4c-0.1-0.2-0.2-0.4-0.2-0.6
			l0.1-4.9c0-0.5-0.1-0.9-0.4-1.3c-0.3-0.4-0.7-0.6-1.2-0.7L33.7,24c-0.5-0.1-0.9,0-1.4,0.3c-0.4,0.2-0.7,0.6-0.8,1.1L29.9,30
			c-0.1,0.2-0.2,0.4-0.4,0.5c-0.2,0.1-0.4,0.2-0.6,0.2H27c-0.2,0-0.4-0.1-0.6-0.2c-0.2-0.1-0.3-0.3-0.4-0.5l-1.6-4.6
			c-0.1-0.5-0.4-0.8-0.8-1.1C23.2,24,22.7,24,22.3,24l-2.1,0.4c-0.5,0.1-0.9,0.3-1.2,0.7c-0.3,0.4-0.4,0.8-0.4,1.3l0.1,4.9
			c0,0.2-0.1,0.4-0.2,0.6c-0.1,0.2-0.3,0.3-0.5,0.4c-0.4,0.2-1.4,0.5-1.8,0.7c-0.4,0.1-0.8,0-1.1-0.4l-3-3.7
			c-0.3-0.4-0.7-0.6-1.2-0.7c-0.5-0.1-0.9,0-1.4,0.2l-1.9,1.1c-0.4,0.2-0.7,0.6-0.9,1.1c-0.1,0.5-0.1,0.9,0.1,1.4l1.7,4.5
			c0.1,0.2,0.1,0.4,0,0.6c-0.1,0.2-0.2,0.4-0.3,0.5c-0.5,0.4-0.9,0.7-1.4,1.2C6.6,38.9,6.3,39,6.1,39c-0.2,0-0.4,0-0.6-0.1l-4.1-2.6
			C1,36,0.5,35.9,0,36c-0.5,0.1-0.9,0.3-1.2,0.7l-1.4,1.7C-2.9,38.7-3,39.2-3,39.6c0,0.5,0.2,0.9,0.5,1.3l3.2,3.7
			c0.1,0.2,0.2,0.4,0.2,0.6c0,0.2,0,0.4-0.2,0.6c-0.3,0.5-0.6,1-0.9,1.6c-0.1,0.2-0.3,0.3-0.5,0.4c-0.2,0.1-0.4,0.1-0.6,0.1L-6,46.9
			c-0.5-0.1-1,0-1.4,0.2c-0.4,0.2-0.7,0.6-0.9,1l-0.8,2c-0.2,0.4-0.2,0.9,0,1.4c0.2,0.4,0.5,0.8,0.9,1l4.3,2.4
			c0.2,0.1,0.3,0.3,0.4,0.5c0.1,0.2,0.1,0.4,0.1,0.6l0,0.2c-0.1,0.5-0.2,1-0.3,1.5c0,0.2-0.1,0.4-0.3,0.6c-0.2,0.2-0.3,0.3-0.6,0.3
			l-4.8,0.8c-0.5,0.1-0.9,0.3-1.2,0.6c-0.3,0.4-0.5,0.8-0.5,1.3v2.2c0,0.5,0.2,0.9,0.5,1.3c0.3,0.4,0.8,0.6,1.2,0.6l4.8,0.8
			c0.2,0,0.4,0.1,0.6,0.3c0.2,0.2,0.2,0.4,0.3,0.6c0.1,0.6,0.2,1.2,0.3,1.8c0,0.2,0,0.4-0.1,0.6c-0.1,0.2-0.2,0.4-0.4,0.5l-4.3,2.4
			c-0.4,0.2-0.8,0.6-0.9,1c-0.2,0.4-0.2,0.9,0,1.4l0.8,2c0.2,0.4,0.5,0.8,0.9,1c0.4,0.2,0.9,0.3,1.4,0.2l4.8-0.9
			c0.2,0,0.4,0,0.6,0.1s0.4,0.2,0.5,0.4c0.3,0.5,0.6,1.1,0.9,1.6C0.9,79.4,1,79.6,1,79.8c0,0.2-0.1,0.4-0.2,0.6l-3.2,3.7
			C-2.8,84.4-3,84.9-3,85.4c0,0.5,0.1,0.9,0.4,1.3l1.4,1.7c0.3,0.4,0.7,0.6,1.2,0.7c0.5,0.1,0.9,0,1.3-0.3l4.2-2.5
			C5.8,86.1,6,86,6.2,86c0.2,0,0.4,0.1,0.6,0.3c0.5,0.4,0.9,0.8,1.4,1.2c0.2,0.1,0.3,0.3,0.4,0.5c0.1,0.2,0,0.4,0,0.6l-1.7,4.6
			c-0.2,0.4-0.2,0.9-0.1,1.4c0.1,0.5,0.5,0.8,0.9,1.1l1.9,1.1c0.4,0.2,0.9,0.3,1.4,0.2c0.5-0.1,0.9-0.4,1.2-0.7l3.1-3.8
			c0.3-0.3,0.7-0.5,1-0.3c0.7,0.3,1.1,0.4,1.9,0.7c0.2,0.1,0.4,0.2,0.5,0.4c0.1,0.2,0.2,0.4,0.2,0.6l-0.1,4.9c0,0.5,0.1,0.9,0.4,1.3
			c0.3,0.4,0.7,0.6,1.2,0.7l2.1,0.4c0.5,0.1,0.9,0,1.4-0.3c0.4-0.2,0.7-0.6,0.8-1.1l1.6-4.6c0.1-0.2,0.2-0.4,0.4-0.5
			c0.2-0.1,0.4-0.2,0.6-0.2h1.8c0.2,0,0.4,0.1,0.6,0.2c0.2,0.1,0.3,0.3,0.4,0.5l1.6,4.6c0.1,0.4,0.4,0.8,0.7,1
			c0.3,0.2,0.7,0.4,1.2,0.4c0.1,0,0.2,0,0.3,0l2.2-0.4c0.5-0.1,0.9-0.3,1.2-0.7c0.3-0.4,0.4-0.8,0.4-1.3l-0.1-4.9
			c0-0.2,0.1-0.4,0.2-0.6s0.3-0.3,0.5-0.4c0.7-0.2,1.2-0.4,1.7-0.6l0.1,0c0.6-0.2,0.8,0,1,0.2l3.1,3.9c0.3,0.4,0.7,0.6,1.2,0.7
			c0.5,0.1,0.9,0,1.4-0.2l1.9-1.1c0.4-0.2,0.7-0.6,0.9-1.1c0.1-0.5,0.1-0.9-0.1-1.4l-1.7-4.5c-0.1-0.2-0.1-0.4,0-0.6
			c0.1-0.2,0.2-0.4,0.3-0.5c0.5-0.4,0.9-0.7,1.4-1.2c0.2-0.1,0.4-0.2,0.6-0.3c0.2,0,0.4,0,0.6,0.1l4.2,2.5C55,88.9,55.5,89,56,89
			c0.5-0.1,0.9-0.3,1.2-0.7l1.4-1.7c0.3-0.4,0.5-0.8,0.5-1.3c0-0.5-0.2-0.9-0.5-1.3l-3.2-3.7c-0.1-0.2-0.2-0.4-0.2-0.6
			c0-0.2,0-0.4,0.2-0.6c0.3-0.5,0.6-1,0.9-1.6c0.1-0.2,0.3-0.3,0.5-0.4c0.2-0.1,0.4-0.1,0.6-0.1L62,78c0.5,0.1,1,0,1.4-0.2
			c0.4-0.2,0.7-0.6,0.9-1l0.7-2c0.2-0.4,0.2-0.9,0-1.4c-0.2-0.4-0.5-0.8-0.9-1L59.8,70c-0.2-0.1-0.3-0.3-0.4-0.5
			c-0.1-0.2-0.1-0.4-0.1-0.6l0-0.2c0.1-0.5,0.2-1,0.3-1.5c0-0.2,0.1-0.4,0.3-0.6c0.2-0.2,0.3-0.3,0.6-0.3l4.8-0.8
			c0.5-0.1,0.9-0.3,1.2-0.6c0.3-0.4,0.5-0.8,0.5-1.3V61.4L67,61.4z M12.2,82.2c-3-2.4-5.3-5.4-7-8.8C3.6,70,2.7,66.2,2.7,62.4
			c0-3.8,0.9-7.5,2.5-10.9c1.7-3.4,4.1-6.4,7-8.8l11.2,19.7L12.2,82.2z M28,87.7c-3.1,0-6.2-0.6-9.1-1.7l11.3-19.7H53
			C51.1,78.5,40.6,87.7,28,87.7z M30.3,58.6L19,38.9c2.9-1.1,5.9-1.7,9-1.6c12.6,0,23.1,9.3,25,21.4H30.3z"/>
		<path class="st13" d="M772.3,149.9c0.5,1,0,2.2-1,2.6L589.7,234c-1.9,0.8-4,0.1-5.1-1.6l-32.2-54.7c-1.3-2.2-4.3-2.6-6.2-0.9
			l-103.4,96c-1.6,1.5-4.2,1.4-5.7-0.2L223.3,38c-1.1-1.2-2.7-1.6-4.2-1.1l-81.9,26.4c-1.6,0.5-3.4,0-4.4-1.4L73-16.4
			c-0.7-0.9-0.5-2.1,0.4-2.8l0,0c0.9-0.7,2.1-0.5,2.8,0.4l58.1,76.1c1,1.3,2.8,1.9,4.4,1.4l81.6-26.3c1.5-0.5,3.1,0,4.2,1.1
			l212.9,233.4c1.5,1.6,4,1.7,5.7,0.2l104.1-96.6c1.9-1.7,4.9-1.3,6.2,0.9l32.9,55.9c1,1.8,3.2,2.5,5.1,1.6l178.3-79.9
			C770.7,148.5,771.9,148.9,772.3,149.9L772.3,149.9z"/>
		<path class="st14" d="M772.3,149.9c0.5,1,0,2.2-1,2.6L589.7,234c-1.9,0.8-4,0.1-5.1-1.6l-32.2-54.7c-1.3-2.2-4.3-2.6-6.2-0.9
			l-103.4,96c-1.6,1.5-4.2,1.4-5.7-0.2L223.3,38c-1.1-1.2-2.7-1.6-4.2-1.1l-81.9,26.4c-1.6,0.5-3.4,0-4.4-1.4L73-16.4
			c-0.7-0.9-0.5-2.1,0.4-2.8l0,0c0.9-0.7,2.1-0.5,2.8,0.4l58.1,76.1c1,1.3,2.8,1.9,4.4,1.4l81.6-26.3c1.5-0.5,3.1,0,4.2,1.1
			l212.9,233.4c1.5,1.6,4,1.7,5.7,0.2l104.1-96.6c1.9-1.7,4.9-1.3,6.2,0.9l32.9,55.9c1,1.8,3.2,2.5,5.1,1.6l178.3-79.9
			C770.7,148.5,771.9,148.9,772.3,149.9L772.3,149.9z"/>
		<circle class="st15" cx="134.2" cy="59.9" r="6"/>
		<circle class="st15" cx="220.9" cy="34.8" r="6"/>
		<circle class="st15" cx="439.3" cy="271" r="6"/>
		<circle class="st15" cx="549.4" cy="173.3" r="6"/>
		<circle class="st15" cx="586.7" cy="231.9" r="6"/>
		<g>
			<path class="st16" d="M169,413.2c0,0,29.5-96.6,37.2-135.4c7.6-38.8,16.7-90.6,16.7-90.6s-47.7-33.4-2.3-46.2c0,0,10-2.8,23.3,0
				c0,0,54-61.7,151.4-8.5c0,0,31.8,0.7,37.1,10.7c5.3,10,1.5,22.4-10.2,30.3c0,0,9.1,96.9,9.1,111.8c0,15,36.5,112.4,57.8,127.8
				C510.4,428.6,169,413.2,169,413.2z"/>
		</g>
		<path class="st17" d="M303.2,182.7c0,0-3.7-7.3-11.4-1.5c-7.7,5.9-5.5,11.4,1.8,10.3C300.9,190.4,304.1,187.5,303.2,182.7z"/>
		<path class="st17" d="M362.2,182.7c0,0,3.7-7.3,11.4-1.5c7.7,5.9,5.5,11.4-1.8,10.3C364.4,190.4,361.2,187.5,362.2,182.7z"/>
		<path class="st17" d="M238.4,150.9c0,0-23.3-4.3-15.7,10.1c2.7,3.6,5.7,7,8.9,10.2L238.4,150.9z"/>
		<path class="st17" d="M409,146.9l8.6,13.6c0,0,9.4-6.4,7.2-11.6C422.6,143.7,415,144.7,409,146.9z"/>
		<path class="st18" d="M334.8,282c0,0-14.7-0.6-22.8-6.3c-8.1-5.7-22.8-16.9-31-38.3c0,0-7-22.9,8.4-32.7
			c15.4-9.8,64.4-11.9,78.3-2.1c0,0,15.4,5,12.5,26.9c-2.9,21.9-13.8,34.3-17.8,38.5C358.4,272.1,350.8,280.6,334.8,282z"/>
		<path class="st19" d="M333.9,201.3c1.2,0,2.2,1,2.2,2.2l-0.3,24c0,1.2-1,2.1-2.2,2.1c-1.2,0-2.2-1-2.2-2.2l0.3-24
			C331.7,202.2,332.7,201.3,333.9,201.3z"/>
		<path class="st20" d="M302.7,172.7c-0.5,1-1.7,1.4-2.7,1c-4.8-1.9-9.8-1.8-12.9-1.3c-1.1,0.2-2.2-0.5-2.5-1.5l0,0
			c-0.3-1.1,0.3-2.2,1.4-2.4c3.7-0.6,9.8-0.8,15.8,1.6C302.8,170.5,303.2,171.7,302.7,172.7L302.7,172.7z"/>
		<path class="st21" d="M207,295.5V356l142,26.5l76.5-37.5l-16-41.5l-80,31.5L207,295.5z"/>
		<path class="st22" d="M313,359.5l-7.5-18.5l15-13.5l18,13.5l-7.5,16L313,359.5z"/>
		<path class="st23" d="M271.5,363L206,299.5l-4.5-1.5l-20,57.5L283,396l186.5-28.5l-33-69.5l-30,15.5l-35.5,42L271.5,363z"/>
		<path class="st24" d="M202,332v-34l143.5,35.5L436,298l6,24.5l-34,14l12.5,29.5l-198,3.5L219,332H202z"/>
		<path class="st25" d="M204.5,283.5L322,327l110-43.5l6.5,14l-93.5,48L322,327l-21.5,18.5l-100-48L204.5,283.5z"/>
		<path class="st26" d="M322,327l-117.5-43.5l-4,14l100,48L322,327z M322,327l23,18.5l93.5-48l-6.5-14L322,327z"/>
		<path class="st27" d="M514.3,271.3c-1.1,0.2-2.2,0.6-3.2,1c-3.7,1.5-8.4,1.5-11.3-1.4l0,0c-2.9-2.9-2.8-7.8,0.8-9.8
			c2.9-1.7,6.5-3.2,10.4-4c7.8-1.6,17.3-0.6,26.1,6.8c8.6,7.2,11.4,15.9,9,24.1c-2.2,7.4-8.2,12.9-14.1,15.7c-2.5,1.2-6.4,3.4-9.9,6
			c-0.5,0.4-1,0.8-1.4,1.1c-3.2,2.6-8,4.6-11.9,3.3l0,0c-3.9-1.3-6.1-5.6-3.5-8.8c2.3-2.9,5.1-5.3,7.6-7.2c4.4-3.4,9.3-6.1,12.5-7.6
			c3.1-1.5,5.6-4.2,6.4-6.7c0.5-1.8,0.6-4.8-4.3-8.9C522.7,270.9,518.2,270.5,514.3,271.3z"/>
		
			<ellipse transform="matrix(0.2713 -0.9625 0.9625 0.2713 48.8473 722.8796)" class="st28" cx="501.8" cy="329.2" rx="8.7" ry="8.9"/>
		<path class="st17" d="M361,173.3c-0.6-0.7-0.2-1.7,0.7-2.1c5.8-2.3,11.9-2.7,15.6-2.5c1.1,0.1,1.8,0.9,1.5,1.7l0,0
			c-0.2,0.8-1.3,1.4-2.4,1.4c-3.1-0.1-8.1,0.2-12.7,2.1C362.8,174.2,361.6,174,361,173.3L361,173.3z"/>
		<circle class="st29" cx="296" cy="190" r="15.5"/>
		<circle class="st29" cx="371" cy="189" r="15.5"/>
		<polygon class="st30" points="312,187.5 355.4,187.7 355.4,192.2 312,191.9 		"/>
		<ellipse transform="matrix(0.6155 -0.7881 0.7881 0.6155 -32.4045 298.7684)" class="st25" cx="290" cy="182.6" rx="3" ry="2"/>
		<circle class="st25" cx="286.5" cy="187.1" r="1.5"/>
		<g>
			
				<rect x="106.8" y="85.6" transform="matrix(0.9865 -0.1638 0.1638 0.9865 -44.3617 60.9954)" class="st31" width="482" height="428"/>
		</g>
		<path class="st32" d="M311.7,220.7c4.4,5.8,13.5,9.4,23.1,9.2c7.5-0.2,15.5-2.9,19.7-7.7"/>
		<path class="st17" d="M344.9,197.2c0,4.5-5.6,8.2-12.5,8.2c-0.7,0-1.4,0-2.1-0.1c-0.5-0.1-1-0.1-1.5-0.2c-5.1-1-8.8-4.1-8.8-7.8
			c0-4.5,5.6-8.2,12.5-8.2C339.4,189,344.9,192.7,344.9,197.2z"/>
	</g>
</g>
</svg>
