<?xml version="1.0" encoding="utf-8"?>
<!-- Generator: Adobe Illustrator 24.3.0, SVG Export Plug-In . SVG Version: 6.00 Build 0)  -->
<svg version="1.1" id="Layer_1" xmlns="http://www.w3.org/2000/svg" xmlns:xlink="http://www.w3.org/1999/xlink" x="0px" y="0px"
	 viewBox="0 0 728 350" style="enable-background:new 0 0 728 350;" xml:space="preserve">
<style type="text/css">
	.st0{clip-path:url(#SVGID_2_);}
	.st1{fill:#FAFCFD;}
	.st2{fill:#8F78FD;}
	.st3{fill:none;stroke:#5836FF;stroke-width:4;}
	.st4{fill:#FFBEE9;}
	.st5{fill:none;stroke:#8C677F;stroke-width:4;}
	.st6{fill:none;stroke:url(#SVGID_3_);stroke-width:12;}
	.st7{fill:#5836FF;}
	.st8{fill-rule:evenodd;clip-rule:evenodd;fill:#0A0702;}
	.st9{fill-rule:evenodd;clip-rule:evenodd;fill:#0B0704;}
	.st10{fill:#FAFCFD;stroke:#0A0702;stroke-width:4;}
	.st11{fill:#B97352;}
	.st12{fill:#221009;}
	.st13{fill:#E3C3AC;}
	.st14{fill-rule:evenodd;clip-rule:evenodd;fill:#221009;}
	.st15{fill-rule:evenodd;clip-rule:evenodd;}
	.st16{fill:#7B5FFF;}
	.st17{fill:#EDEDED;}
	.st18{fill:#392C2C;stroke:#000000;stroke-width:4;}
	.st19{fill:#3E62FE;stroke:#2D48BC;stroke-width:4;}
	.st20{fill:none;stroke:#000000;stroke-width:4;}
	.st21{fill:#FFFFFF;}
	.st22{fill:none;stroke:#BFBFBF;stroke-width:3;}
	.st23{fill-rule:evenodd;clip-rule:evenodd;fill:#E98BC9;}
	.st24{fill:#E98BC9;}
	.st25{fill:none;}
	.st26{fill:none;stroke:#221009;stroke-width:3;stroke-linecap:round;stroke-miterlimit:10;}
</style>
<g>
	<g>
		<defs>
			<rect id="SVGID_1_" x="8.7" y="-10.6" width="728" height="350"/>
		</defs>
		<clipPath id="SVGID_2_">
			<use xlink:href="#SVGID_1_"  style="overflow:visible;"/>
		</clipPath>
		<g class="st0">
			<rect x="8.7" y="-10.6" class="st1" width="728" height="350"/>
			<path class="st2" d="M253.5,358.4c-60,2.6-169.3-25.6-126.9-159.6C182.5,200.6,286.2,235.1,253.5,358.4z"/>
			<g>
				<path class="st3" d="M127,197.6l22.1,35.8 M248.8,395l-43.1-69.9 M149,233.3l-44.1-1 M149,233.3l20,32.5 M169,265.8l15.5-66.4
					 M169,265.8l15.6,25.3 M184.6,291.1l-78.3,3.1 M184.6,291.1l21,34.1 M205.7,325.2l24.8-91.9"/>
			</g>
			<path class="st4" d="M408.4,284.4c-22-55.8-30.9-168.4,109.5-172C534.4,165.9,535.6,275.2,408.4,284.4z"/>
			<g>
				<path class="st5" d="M519.2,112.4l-26.6,32.5 M372.2,291.9l52-63.5 M492.6,144.9l-13.4-42 M492.6,144.9l-24.2,29.5 M468.4,174.4
					l67.8-7 M468.4,174.4l-18.8,23 M449.6,197.4l-28.4-73 M449.6,197.4l-25.4,31 M424.2,228.4l95-6.5"/>
			</g>
			
				<linearGradient id="SVGID_3_" gradientUnits="userSpaceOnUse" x1="519.6872" y1="291.4255" x2="519.6872" y2="672.4255" gradientTransform="matrix(1 0 0 1 0 -440)">
				<stop  offset="0" style="stop-color:#5836FF"/>
				<stop  offset="1" style="stop-color:#FEBEE9"/>
			</linearGradient>
			<path class="st6" d="M355,23.8c-52.2,3.2-91.6-45-90.3-62.9l29,5.7l431.5-115.1L774,11.3c3.6,75.6-7.7,249.4-8.6,217.2
				c-1.1-40.3-49.3-112.8-131.5-115.7c-82.2-2.8-53.8-51.6-106.5-89S420.2,19.8,355,23.8z"/>
			<path class="st7" d="M64.7,210.8c0-0.5-0.2-0.9-0.5-1.2c-0.3-0.3-0.8-0.6-1.2-0.6l-4.8-0.8c-0.2,0-0.4-0.1-0.6-0.3
				c-0.2-0.2-0.2-0.4-0.3-0.6c-0.1-0.6-0.2-1.2-0.3-1.8c0-0.2,0-0.4,0.1-0.6c0.1-0.2,0.2-0.4,0.4-0.5l4.3-2.4c0.4-0.2,0.8-0.6,0.9-1
				c0.2-0.4,0.2-0.9,0-1.4l-0.7-2c-0.2-0.4-0.5-0.8-0.9-1s-0.9-0.3-1.4-0.2l-4.8,0.9c-0.2,0-0.4,0-0.6-0.1c-0.2-0.1-0.4-0.2-0.5-0.4
				c-0.3-0.5-0.6-1.1-0.9-1.6c-0.1-0.2-0.2-0.4-0.2-0.6c0-0.2,0.1-0.4,0.2-0.6l3.2-3.7c0.3-0.3,0.5-0.8,0.5-1.3s-0.1-0.9-0.4-1.3
				l-1.4-1.7c-0.3-0.4-0.7-0.6-1.2-0.7c-0.5-0.1-0.9,0-1.3,0.3l-4.2,2.5c-0.2,0.1-0.4,0.2-0.6,0.1c-0.2,0-0.4-0.1-0.6-0.3
				c-0.5-0.4-0.9-0.8-1.4-1.2c-0.2-0.1-0.3-0.3-0.4-0.5c-0.1-0.2,0-0.4,0-0.6l1.7-4.6c0.2-0.4,0.2-0.9,0.1-1.4
				c-0.1-0.5-0.5-0.8-0.9-1.1l-1.9-1.1c-0.4-0.2-0.9-0.3-1.4-0.2s-0.9,0.4-1.2,0.7l-3.1,3.8c-0.1,0.2-0.3,0.3-0.5,0.3
				c-0.2,0.1-0.4,0-0.6,0c-0.1,0-1.1-0.4-1.8-0.7c-0.2-0.1-0.4-0.2-0.5-0.4s-0.2-0.4-0.2-0.6l0.1-4.9c0-0.5-0.1-0.9-0.4-1.3
				c-0.3-0.4-0.7-0.6-1.2-0.7l-2.1-0.4c-0.5-0.1-0.9,0-1.4,0.3c-0.4,0.2-0.7,0.6-0.8,1.1l-1.6,4.6c-0.1,0.2-0.2,0.4-0.4,0.5
				c-0.2,0.1-0.4,0.2-0.6,0.2h-1.8c-0.2,0-0.4-0.1-0.6-0.2c-0.2-0.1-0.3-0.3-0.4-0.5l-1.6-4.6c-0.1-0.5-0.4-0.8-0.8-1.1
				c-0.4-0.2-0.9-0.3-1.4-0.3l-2.1,0.4c-0.5,0.1-0.9,0.3-1.2,0.7c-0.3,0.4-0.4,0.8-0.4,1.3l0.1,4.9c0,0.2-0.1,0.4-0.2,0.6
				c-0.1,0.2-0.3,0.3-0.5,0.4c-0.4,0.2-1.4,0.5-1.8,0.7c-0.4,0.1-0.8,0-1.1-0.4l-3-3.7c-0.3-0.4-0.7-0.6-1.2-0.7
				c-0.5-0.1-0.9,0-1.4,0.2l-1.9,1.1c-0.4,0.2-0.7,0.6-0.9,1.1c-0.1,0.5-0.1,0.9,0.1,1.4l1.7,4.5c0.1,0.2,0.1,0.4,0,0.6
				c-0.1,0.2-0.2,0.4-0.3,0.5c-0.5,0.4-0.9,0.7-1.4,1.2c-0.2,0.1-0.4,0.2-0.6,0.3c-0.2,0-0.4,0-0.6-0.1l-4.1-2.6
				c-0.4-0.3-0.9-0.4-1.3-0.3c-0.5,0.1-0.9,0.3-1.2,0.7l-1.4,1.7c-0.3,0.4-0.5,0.8-0.5,1.3s0.2,0.9,0.5,1.3l3.2,3.7
				c0.1,0.2,0.2,0.4,0.2,0.6c0,0.2,0,0.4-0.2,0.6c-0.3,0.5-0.6,1-0.9,1.6c-0.1,0.2-0.3,0.3-0.5,0.4c-0.2,0.1-0.4,0.1-0.6,0.1
				l-4.8-0.9c-0.5-0.1-1,0-1.4,0.2s-0.7,0.6-0.9,1l-0.8,2c-0.2,0.4-0.2,0.9,0,1.4c0.2,0.4,0.5,0.8,0.9,1l4.3,2.4
				c0.2,0.1,0.3,0.3,0.4,0.5s0.1,0.4,0.1,0.6v0.2c-0.1,0.5-0.2,1-0.3,1.5c0,0.2-0.1,0.4-0.3,0.6s-0.3,0.3-0.6,0.3l-4.8,0.8
				c-0.5,0.1-0.9,0.3-1.2,0.6c-0.3,0.4-0.5,0.8-0.5,1.3v2.2c0,0.5,0.2,0.9,0.5,1.3c0.3,0.4,0.8,0.6,1.2,0.6l4.8,0.8
				c0.2,0,0.4,0.1,0.6,0.3s0.2,0.4,0.3,0.6c0.1,0.6,0.2,1.2,0.3,1.8c0,0.2,0,0.4-0.1,0.6s-0.2,0.4-0.4,0.5l-4.3,2.4
				c-0.4,0.2-0.8,0.6-0.9,1c-0.2,0.4-0.2,0.9,0,1.4l0.8,2c0.2,0.4,0.5,0.8,0.9,1s0.9,0.3,1.4,0.2l4.8-0.9c0.2,0,0.4,0,0.6,0.1
				c0.2,0.1,0.4,0.2,0.5,0.4c0.3,0.5,0.6,1.1,0.9,1.6c0.1,0.2,0.2,0.4,0.2,0.6s-0.1,0.4-0.2,0.6l-3.2,3.7c-0.3,0.3-0.5,0.8-0.5,1.3
				s0.1,0.9,0.4,1.3l1.4,1.7c0.3,0.4,0.7,0.6,1.2,0.7s0.9,0,1.3-0.3l4.2-2.5c0.2-0.1,0.4-0.2,0.6-0.1c0.2,0,0.4,0.1,0.6,0.3
				c0.5,0.4,0.9,0.8,1.4,1.2c0.2,0.1,0.3,0.3,0.4,0.5s0,0.4,0,0.6l-1.7,4.6c-0.2,0.4-0.2,0.9-0.1,1.4c0.1,0.4,0.5,0.8,0.9,1.1
				l1.9,1.1c0.4,0.2,0.9,0.3,1.4,0.2s0.9-0.4,1.2-0.7l3.1-3.8c0.3-0.3,0.7-0.5,1-0.3c0.7,0.3,1.1,0.4,1.9,0.7
				c0.2,0.1,0.4,0.2,0.5,0.4s0.2,0.4,0.2,0.6l-0.1,4.9c0,0.5,0.1,0.9,0.4,1.3c0.3,0.4,0.7,0.6,1.2,0.7l2.1,0.4
				c0.5,0.1,0.9,0,1.4-0.3c0.4-0.2,0.7-0.6,0.8-1.1l1.6-4.6c0.1-0.2,0.2-0.4,0.4-0.5c0.2-0.1,0.4-0.2,0.6-0.2h1.8
				c0.2,0,0.4,0.1,0.6,0.2c0.2,0.1,0.3,0.3,0.4,0.5l1.6,4.6c0.1,0.4,0.4,0.8,0.7,1c0.3,0.2,0.7,0.4,1.2,0.4c0.1,0,0.2,0,0.3,0
				l2.2-0.4c0.5-0.1,0.9-0.3,1.2-0.7s0.4-0.8,0.4-1.3l-0.1-4.9c0-0.2,0.1-0.4,0.2-0.6c0.1-0.2,0.3-0.3,0.5-0.4
				c0.7-0.2,1.2-0.4,1.7-0.6h0.1c0.6-0.2,0.8,0,1,0.2l3.1,3.9c0.3,0.4,0.7,0.6,1.2,0.7c0.5,0.1,0.9,0,1.4-0.2l1.9-1.1
				c0.4-0.2,0.7-0.6,0.9-1.1c0.1-0.5,0.1-0.9-0.1-1.4l-1.7-4.5c-0.1-0.2-0.1-0.4,0-0.6c0.1-0.2,0.2-0.4,0.3-0.5
				c0.5-0.4,0.9-0.7,1.4-1.2c0.2-0.1,0.4-0.2,0.6-0.3c0.2,0,0.4,0,0.6,0.1l4.2,2.5c0.4,0.3,0.9,0.4,1.3,0.3c0.5-0.1,0.9-0.3,1.2-0.7
				l1.4-1.7c0.3-0.4,0.5-0.8,0.5-1.3s-0.2-0.9-0.5-1.3l-3.2-3.7c-0.1-0.2-0.2-0.4-0.2-0.6c0-0.2,0-0.4,0.2-0.6
				c0.3-0.5,0.6-1,0.9-1.6c0.1-0.2,0.3-0.3,0.5-0.4c0.2-0.1,0.4-0.1,0.6-0.1l4.8,0.9c0.5,0.1,1,0,1.4-0.2s0.7-0.6,0.9-1l0.7-2
				c0.2-0.4,0.2-0.9,0-1.4c-0.2-0.4-0.5-0.8-0.9-1l-4.3-2.4c-0.2-0.1-0.3-0.3-0.4-0.5c-0.1-0.2-0.1-0.4-0.1-0.6v-0.2
				c0.1-0.5,0.2-1,0.3-1.5c0-0.2,0.1-0.4,0.3-0.6c0.2-0.2,0.3-0.3,0.6-0.3l4.8-0.8c0.5-0.1,0.9-0.3,1.2-0.6c0.3-0.4,0.5-0.8,0.5-1.3
				v-2.3H64.7z M9.9,231.6c-3-2.4-5.3-5.4-7-8.8c-1.6-3.4-2.5-7.2-2.5-10.9c0-3.8,0.9-7.5,2.5-10.9c1.7-3.4,4.1-6.4,7-8.8l11.3,19.7
				L9.9,231.6z M25.7,237.2c-3.1,0-6.2-0.6-9.1-1.7L28,215.8h22.7C48.8,227.9,38.4,237.2,25.7,237.2z M28,208l-11.2-19.7
				c2.9-1.1,5.9-1.6,9-1.6c12.6,0,23.1,9.3,25,21.4L28,208L28,208z"/>
			<path class="st8" d="M530.9-136.1c1.1,0.3,1.7,1.4,1.4,2.5L477.7,57.7c-0.6,2-2.5,3.2-4.5,2.8L410.6,50c-2.5-0.4-4.8,1.6-4.7,4.1
				l6.9,140.9c0.1,2.2-1.6,4.1-3.8,4.2L91.9,212c-1.6,0.1-3,1-3.5,2.5l-32.5,79.7c-0.6,1.6-2.2,2.6-3.9,2.5l-98.5-4.7
				c-1.1-0.1-2-1-1.9-2.1l0,0c0.1-1.1,1-2,2.1-1.9l95.6,4.6c1.7,0.1,3.3-0.9,3.9-2.5l32.4-79.4c0.6-1.5,2-2.4,3.5-2.5l315.6-12.7
				c2.2-0.1,3.9-2,3.8-4.2l-6.9-141.8c-0.1-2.6,2.1-4.6,4.7-4.1l64,10.7c2,0.3,4-0.9,4.5-2.8l53.6-187.9
				C528.8-135.8,529.9-136.4,530.9-136.1L530.9-136.1z"/>
			<path class="st9" d="M530.9-136.1c1.1,0.3,1.7,1.4,1.4,2.5L477.7,57.7c-0.6,2-2.5,3.2-4.5,2.8L410.6,50c-2.5-0.4-4.8,1.6-4.7,4.1
				l6.9,140.9c0.1,2.2-1.6,4.1-3.8,4.2L91.9,212c-1.6,0.1-3,1-3.5,2.5l-32.5,79.7c-0.6,1.6-2.2,2.6-3.9,2.5l-98.5-4.7
				c-1.1-0.1-2-1-1.9-2.1l0,0c0.1-1.1,1-2,2.1-1.9l95.6,4.6c1.7,0.1,3.3-0.9,3.9-2.5l32.4-79.4c0.6-1.5,2-2.4,3.5-2.5l315.6-12.7
				c2.2-0.1,3.9-2,3.8-4.2l-6.9-141.8c-0.1-2.6,2.1-4.6,4.7-4.1l64,10.7c2,0.3,4-0.9,4.5-2.8l53.6-187.9
				C528.8-135.8,529.9-136.4,530.9-136.1L530.9-136.1z"/>
			<circle class="st10" cx="51.3" cy="294.3" r="6"/>
			<circle class="st10" cx="87.9" cy="211.8" r="6"/>
			<circle class="st10" cx="409.3" cy="196.6" r="6"/>
			<circle class="st10" cx="405.4" cy="49.5" r="6"/>
			<circle class="st10" cx="474.2" cy="58.7" r="6"/>
			<g>
				<path class="st11" d="M177.7,402.7c0,0,29.5-96.6,37.2-135.4c7.6-38.8,16.7-90.6,16.7-90.6s-47.7-33.4-2.3-46.2
					c0,0,10-2.8,23.3,0c0,0,54-61.7,151.4-8.5c0,0,31.8,0.7,37.1,10.7c5.3,10,1.5,22.4-10.2,30.3c0,0,9.1,96.9,9.1,111.8
					c0,15,36.5,112.4,57.8,127.8C519.1,418,177.7,402.7,177.7,402.7z"/>
			</g>
			<path class="st12" d="M314,167.2c0,0-3.7-7.3-11.4-1.5c-7.7,5.9-5.5,11.4,1.8,10.3C311.7,174.8,314.9,171.9,314,167.2z"/>
			<path class="st12" d="M364.9,167.2c0,0,3.7-7.3,11.4-1.5c7.7,5.9,5.5,11.4-1.8,10.3C367.2,174.8,364,171.9,364.9,167.2z"/>
			<path class="st12" d="M247.1,140.3c0,0-23.3-4.3-15.7,10.1c2.7,3.6,5.7,7,8.9,10.2L247.1,140.3z"/>
			<path class="st12" d="M417.7,136.3l8.6,13.6c0,0,9.4-6.4,7.2-11.6C431.4,133.1,423.7,134.1,417.7,136.3z"/>
			<path class="st13" d="M343.8,269.6c0,0-15.3-0.6-23.8-6.2s-23.8-16.5-32.3-37.5c0,0-7.3-22.4,8.8-32c16.1-9.6,67.2-11.7,81.7-2.1
				c0,0,16.1,4.9,13,26.4c-3.1,21.4-14.4,33.6-18.5,37.7C368.4,260,360.5,268.3,343.8,269.6z"/>
			<path class="st12" d="M353.7,186.6c0,4.5-5.6,8.2-12.5,8.2c-0.7,0-1.4,0-2.1-0.1c-0.5-0.1-1-0.1-1.5-0.2c-5.1-1-8.8-4.1-8.8-7.8
				c0-4.5,5.6-8.2,12.5-8.2C348.1,178.4,353.7,182.1,353.7,186.6z"/>
			<path class="st14" d="M228.6,128"/>
			<path class="st14" d="M228,126.1"/>
			<path class="st14" d="M342.6,190.7c1.2,0,2.2,0.8,2.2,1.8l-0.3,19.8c0,1-1,1.7-2.2,1.7s-2.2-0.8-2.2-1.8l0.3-19.8
				C340.4,191.5,341.4,190.7,342.6,190.7z"/>
			<path class="st15" d="M313.5,153.9c-0.1,1.1-1.1,1.9-2.2,1.8c-5.2-0.1-9.8,1.6-12.6,3.1c-1,0.5-2.2,0.3-2.9-0.6l0,0
				c-0.6-0.9-0.4-2.1,0.5-2.7c3.3-1.9,9-4.1,15.4-3.9C312.8,151.8,313.6,152.8,313.5,153.9L313.5,153.9z"/>
			<path class="st15" d="M366.1,153.9c-0.1-1.1,0.6-2.1,1.7-2.2c6.4-0.3,12.2,1.8,15.4,3.7c1,0.5,1.2,1.8,0.5,2.7l0,0
				c-0.6,0.9-1.9,1.1-2.9,0.6c-2.8-1.5-7.4-3.2-12.6-3C367.3,155.8,366.3,155,366.1,153.9L366.1,153.9z"/>
			<rect x="540.7" y="227.4" class="st16" width="37" height="112"/>
			<rect x="594.2" y="188.4" class="st16" width="37" height="151"/>
			<rect x="647.7" y="261.4" class="st16" width="37" height="129"/>
			<path class="st17" d="M215.7,284.9v60.5l142,26.5l76.5-37.5l-16-41.5l-80,31.5L215.7,284.9z"/>
			<path class="st18" d="M280.2,352.4l-65.5-63.5l-4.5-1.5l-20,57.5l101.5,40.5l186.5-28.5l-33-69.5l-30,15.5l-35.5,42L280.2,352.4z
				"/>
			<path class="st19" d="M321.7,348.9l-7.5-18.5l15-13.5l18,13.5l-7.5,16L321.7,348.9z"/>
			<path class="st20" d="M210.7,322.4v-34l113,32.5l121-32.5l6,24.5l-34,14l12.5,29.5l-198,3.5l-3.5-37.5H210.7z"/>
			<path class="st21" d="M213.2,272.9l117.5,43.5l110-43.5l6.5,14l-93.5,48l-23-18.5l-21.5,18.5l-100-48L213.2,272.9z"/>
			<path class="st22" d="M330.7,316.4l-117.5-43.5l-4,14l100,48L330.7,316.4z M330.7,316.4l23,18.5l93.5-48l-6.5-14L330.7,316.4z"/>
			<path class="st23" d="M200,64.7c-1.1,0.2-2.2,0.6-3.2,1c-3.7,1.5-8.4,1.5-11.3-1.4c-2.9-2.9-2.8-7.8,0.8-9.8
				c2.9-1.7,6.4-3.2,10.4-4c7.8-1.6,17.3-0.6,26.1,6.8c8.6,7.2,11.4,15.9,9,24.1c-2.2,7.4-8.2,12.9-14.1,15.7
				c-2.5,1.2-6.4,3.4-9.9,6c-0.5,0.4-1,0.8-1.4,1.1c-3.2,2.6-8,4.6-11.9,3.3c-3.9-1.3-6.1-5.6-3.5-8.8c2.3-2.9,5.1-5.3,7.6-7.2
				c4.4-3.4,9.3-6.1,12.5-7.6c3.1-1.5,5.6-4.2,6.4-6.7c0.5-1.8,0.6-4.8-4.3-8.9C208.4,64.3,203.9,63.9,200,64.7z"/>
			
				<ellipse transform="matrix(0.2713 -0.9625 0.9625 0.2713 18.7098 269.8484)" class="st24" cx="187.6" cy="122.6" rx="8.7" ry="8.9"/>
			<g>
				<path class="st25" d="M96.7,30.4h413l40,195.5L44.8,498.7L96.7,30.4z"/>
			</g>
			<path class="st26" d="M319.7,206.1c4.4,5.8,13.5,9.4,23.1,9.2c7.5-0.2,15.5-2.9,19.7-7.7"/>
		</g>
	</g>
</g>
</svg>
