<svg id="Layer_1" data-name="Layer 1" xmlns="http://www.w3.org/2000/svg" xmlns:xlink="http://www.w3.org/1999/xlink" viewBox="0 0 728 350"><defs><style>.cls-1{fill:#ffda55;}.cls-2{fill:url(#linear-gradient);}.cls-3{fill:#161513;}.cls-12,.cls-14,.cls-4,.cls-8,.cls-9{fill:none;}.cls-5{clip-path:url(#clip-path);}.cls-6{fill:#8ce67d;}.cls-7{mask:url(#mask);}.cls-8{stroke:#62c88b;}.cls-12,.cls-8{stroke-width:4px;}.cls-9{stroke-width:12px;stroke:url(#linear-gradient-2);}.cls-10{fill:#8faeff;}.cls-11{mask:url(#mask-2);}.cls-12{stroke:#6f8ddd;}.cls-13{mask:url(#mask-3);}.cls-14{stroke:#c07f5f;stroke-width:7.6px;}.cls-15{fill:#be7958;}.cls-16{mask:url(#mask-4);}.cls-17,.cls-19{fill:#221009;}.cls-18{fill:#e3c3ac;}.cls-19,.cls-26,.cls-27{fill-rule:evenodd;}.cls-20{mask:url(#mask-5);}.cls-21{fill:#c4c4c4;}.cls-22{fill:#2b201c;}.cls-23{fill:url(#linear-gradient-3);}.cls-24{fill:url(#linear-gradient-4);}.cls-25{fill:#493b36;}.cls-26{fill:#342824;}.cls-28{fill:#81b6a2;}</style><linearGradient id="linear-gradient" x1="436.8" y1="201.07" x2="314.3" y2="-57.48" gradientTransform="matrix(1, 0, 0, -1, 0, 352)" gradientUnits="userSpaceOnUse"><stop offset="0" stop-color="#d7987b"/><stop offset="1" stop-color="#b97352"/></linearGradient><clipPath id="clip-path"><rect class="cls-4" width="728" height="350"/></clipPath><mask id="mask" x="176.24" y="214.06" width="136.61" height="209.16" maskUnits="userSpaceOnUse"><g id="mask1"><path class="cls-1" d="M277.24,407.37c33.23-50,65.56-158.16-71-191.15C178.93,265.06,154.81,371.68,277.24,407.37Z"/></g></mask><linearGradient id="linear-gradient-2" x1="228" y1="482" x2="228" y2="101" gradientTransform="matrix(1, 0, 0, -1, 0, 352)" gradientUnits="userSpaceOnUse"><stop offset="0" stop-color="#a1e796"/><stop offset="1" stop-color="#8eadff"/></linearGradient><mask id="mask-2" x="168.29" y="23.89" width="165.75" height="190.87" maskUnits="userSpaceOnUse"><g id="mask0"><path class="cls-1" d="M296.29,206c22-55.83,30.9-168.4-109.5-172C170.29,87.5,169.09,196.8,296.29,206Z"/></g></mask><mask id="mask-3" x="407.87" y="243.18" width="166.42" height="186.49" maskUnits="userSpaceOnUse"><g id="mask1-2" data-name="mask1"><path class="cls-1" d="M409.75,391.43c59,10.75,171.2-2.35,147.49-140.78C501.56,244.84,394.1,264.86,409.75,391.43Z"/></g></mask><mask id="mask-4" x="33" y="-26" width="624.13" height="600.69" maskUnits="userSpaceOnUse"><g id="mask2"><path class="cls-2" d="M193,421.24s29.51-96.57,37.15-135.36,16.71-90.58,16.71-90.58-47.7-33.43-2.33-46.17c0,0,10-2.81,23.28,0,0,0,54-61.72,151.43-8.49,0,0,31.81.74,37.06,10.69s1.53,22.37-10.23,30.32c0,0,9.12,96.85,9.12,111.81S491.7,405.91,513,421.24,193,421.24,193,421.24Z"/></g></mask><mask id="mask-5" x="259" y="40" width="200" height="114.58" maskUnits="userSpaceOnUse"><g id="mask3"><path class="cls-3" d="M422,132c0,50.81-29.08,0-70.5,0S272,182.81,272,132s33.58-92,75-92S422,81.19,422,132Z"/></g></mask><linearGradient id="linear-gradient-3" x1="355.47" y1="258.66" x2="343.47" y2="194.66" gradientTransform="matrix(1, 0, 0, -1, 0, 352)" gradientUnits="userSpaceOnUse"><stop offset="0" stop-color="#58453e"/><stop offset="1" stop-color="#302420"/></linearGradient><linearGradient id="linear-gradient-4" x1="355.78" y1="340.17" x2="340.78" y2="297.17" gradientTransform="matrix(1, 0, 0, -1, 0, 352)" gradientUnits="userSpaceOnUse"><stop offset="0" stop-color="#654f47"/><stop offset="1" stop-color="#2b201c"/></linearGradient></defs><g class="cls-5"><path class="cls-6" d="M277.24,407.37c33.23-50,65.56-158.16-71-191.15C178.93,265.06,154.81,371.68,277.24,407.37Z"/><g class="cls-7"><path class="cls-8" d="M205,216l19.2,37.36m86.84,169-37.52-73m-49.32-96,21.9-38.25m-21.9,38.25,17.42,33.92m0,0-64.79-21.08m64.79,21.08,13.59,26.44m0,0,43.08-65.42m-43.08,65.42,18.31,35.63m0,0L182,323"/></g><path class="cls-9" d="M392.71,42.37c52.16,3.18,91.58-45,90.26-62.94l-29,5.67L22.46-130-26.3,29.9c-3.59,75.6,7.71,249.37,8.61,217.16,1.14-40.25,49.33-112.83,131.55-115.67s53.75-51.6,106.48-89S327.51,38.4,392.71,42.37Z"/><path class="cls-10" d="M296.29,206c22-55.83,30.9-168.4-109.5-172C170.29,87.5,169.09,196.8,296.29,206Z"/><g class="cls-11"><path class="cls-12" d="M185.5,34l26.62,32.5m120.38,147-52-63.5M212.12,66.5l13.38-42m-13.38,42L236.27,96m0,0L168.5,89m67.77,7,18.84,23m0,0L283.5,46m-28.39,73,25.39,31m0,0-95-6.5"/></g><path class="cls-6" d="M409.75,391.43c59,10.75,171.2-2.35,147.49-140.78C501.56,244.84,394.1,264.86,409.75,391.43Z"/><g class="cls-13"><path class="cls-8" d="M557,249.38l-26.72,32.41M409.42,428.4l52.2-63.33m68.65-83.28,43.8,5m-43.8-5L506,311.21m0,0-6.28-67.84M506,311.21l-18.91,22.94m0,0,77.12,13.69m-77.12-13.69-25.49,30.92m0,0-12.05-94.45"/></g><rect class="cls-4" x="265.79" y="256.58" width="482" height="428" transform="translate(-70.22 89.34) rotate(-9.42)"/><circle class="cls-14" cx="346.5" cy="191.5" r="10.5"/><path class="cls-15" d="M193,421.24s29.51-96.57,37.15-135.36,16.71-90.58,16.71-90.58-47.7-33.43-2.33-46.17c0,0,10-2.81,23.28,0,0,0,54-61.72,151.43-8.49,0,0,31.81.74,37.06,10.69s1.53,22.37-10.23,30.32c0,0,9.12,96.85,9.12,111.81S491.7,405.91,513,421.24,193,421.24,193,421.24Z"/><g class="cls-16"><rect class="cls-4" x="131.07" y="33.35" width="428" height="482" transform="translate(-56.44 456.36) rotate(-62.87)"/></g><path class="cls-17" d="M327.22,190.74s-3.75-7.33-11.41-1.47-5.52,11.41,1.8,10.27S328.13,195.47,327.22,190.74Z"/><path class="cls-17" d="M386.15,190.74s3.75-7.33,11.41-1.47,5.52,11.41-1.8,10.27S385.24,195.47,386.15,190.74Z"/><path class="cls-17" d="M262.39,158.91s-23.34-4.26-15.7,10.06a99.55,99.55,0,0,0,8.92,10.21Z"/><path class="cls-17" d="M433,154.9l8.59,13.62s9.43-6.45,7.25-11.63S439,152.69,433,154.9Z"/><path class="cls-18" d="M358.82,297.91S344.13,297.26,336,291s-22.8-18.49-31-41.83c0,0-7-25,8.4-35.72s64.4-13,78.29-2.3c0,0,15.44,5.49,12.5,29.43s-13.77,37.51-17.78,42S374.81,296.4,358.82,297.91Z"/><path class="cls-17" d="M368.94,205.17c0,4.51-5.58,8.17-12.48,8.17-.7,0-1.41,0-2.11-.11-.53-.06-1-.14-1.54-.24-5.1-1-8.81-4.14-8.81-7.82,0-4.51,5.58-8.17,12.48-8.17S368.94,200.67,368.94,205.17Z"/><path class="cls-19" d="M375.94,219.87a2.69,2.69,0,0,1,.55,3.07c-5.82,10.77-15.36,13.6-23.21,13.82a42.33,42.33,0,0,1-10.11-1c-1.3-.28-2.36-.57-3.09-.8l-.86-.27-.23-.08-.07,0h0l.27-2.08-.27,2.08a2.6,2.6,0,0,1-1.43-2.72c.15-1.16,1-1.82,2-1.47l-.28,2.09.28-2.09h0l.05,0,.19.06.76.25c.67.2,1.65.47,2.87.74a39.4,39.4,0,0,0,9.44.92c7.35-.21,15.75-2.85,20.82-12.23A1.42,1.42,0,0,1,375.94,219.87Z"/><path class="cls-19" d="M358.08,209.27a2.08,2.08,0,0,1,2.11,1.88L360,231.08a1.85,1.85,0,0,1-2.13,1.65,2.09,2.09,0,0,1-2.11-1.88l.17-19.93A1.85,1.85,0,0,1,358.08,209.27Z"/><path class="cls-3" d="M422,132c0,50.81-27.58,4-69,4s-81,46.81-81-4,33.58-92,75-92S422,81.19,422,132Z"/><g class="cls-20"><rect class="cls-21" x="276" y="66" width="140" height="4"/><rect class="cls-21" x="259" y="104" width="200" height="4"/></g><rect class="cls-22" x="263" y="119" width="168" height="39" rx="6"/><rect class="cls-23" x="263" y="119" width="168" height="39" rx="6"/><path class="cls-22" d="M347,17l1.4,2.23,1.73-2,1,2.42,2-1.69.64,2.56,2.26-1.36.23,2.63,2.45-1-.19,2.63,2.57-.59-.59,2.57,2.63-.19-1,2.45,2.63.23-1.36,2.26,2.56.64-1.69,2,2.42,1-2,1.73L367,37l-2.23,1.4,2,1.73-2.42,1,1.69,2-2.56.64,1.36,2.26-2.63.23,1,2.45-2.63-.19.59,2.57-2.57-.59.19,2.63-2.45-1-.23,2.63-2.26-1.36L353.18,56l-2-1.69-1,2.42-1.73-2L347,57l-1.4-2.23-1.73,2-1-2.42-2,1.69-.64-2.56-2.26,1.36-.23-2.63-2.45,1,.19-2.63-2.57.59.59-2.57-2.63.19,1-2.45-2.63-.23,1.36-2.26L328,43.18l1.69-2-2.42-1,2-1.73L327,37l2.23-1.4-2-1.73,2.42-1-1.69-2,2.56-.64-1.36-2.26,2.63-.23-1-2.45,2.63.19-.59-2.57,2.57.59-.19-2.63,2.45,1,.23-2.63,2.26,1.36.64-2.56,2,1.69,1-2.42,1.73,2Z"/><path class="cls-24" d="M347,17l1.4,2.23,1.73-2,1,2.42,2-1.69.64,2.56,2.26-1.36.23,2.63,2.45-1-.19,2.63,2.57-.59-.59,2.57,2.63-.19-1,2.45,2.63.23-1.36,2.26,2.56.64-1.69,2,2.42,1-2,1.73L367,37l-2.23,1.4,2,1.73-2.42,1,1.69,2-2.56.64,1.36,2.26-2.63.23,1,2.45-2.63-.19.59,2.57-2.57-.59.19,2.63-2.45-1-.23,2.63-2.26-1.36L353.18,56l-2-1.69-1,2.42-1.73-2L347,57l-1.4-2.23-1.73,2-1-2.42-2,1.69-.64-2.56-2.26,1.36-.23-2.63-2.45,1,.19-2.63-2.57.59.59-2.57-2.63.19,1-2.45-2.63-.23,1.36-2.26L328,43.18l1.69-2-2.42-1,2-1.73L327,37l2.23-1.4-2-1.73,2.42-1-1.69-2,2.56-.64-1.36-2.26,2.63-.23-1-2.45,2.63.19-.59-2.57,2.57.59-.19-2.63,2.45,1,.23-2.63,2.26,1.36.64-2.56,2,1.69,1-2.42,1.73,2Z"/><path class="cls-25" d="M199,335l-8,18,301,1.5-22-34,10-6,4.5-6.5-1.5-5.5-6-6.5-9-2V279.5l-1.5-4.5L454,273l.5,13.75V288l-10,10.5-52.5,19-44,10-56-19-58-24-2-4.5V269.5l-7-4-9,2-5,6.5-2.5,7.5v11l-4-3V302l6.5,13.5Z"/><path class="cls-26" d="M222.31,264.24a18.41,18.41,0,0,1,10.63,4.09l.22.18a1,1,0,0,1,.37.93l-1.33,8.83a1.19,1.19,0,0,0,.06.53c.07.2.15.41.23.65.23.68.52,1.64.9,3a.39.39,0,0,0,.09.17h0a3.88,3.88,0,0,0,.59.52,21,21,0,0,0,2.56,1.61c2.26,1.26,5.49,2.79,9.48,4.53,8,3.47,18.88,7.72,30.95,12.2,23.86,8.86,52.2,18.58,71.27,24.92a.92.92,0,0,0,.52,0c15.39-3.35,38.75-9.14,59.6-15.82A263.06,263.06,0,0,0,436.84,300a80.71,80.71,0,0,0,10.09-5.36,23.13,23.13,0,0,0,5.87-5,38.11,38.11,0,0,0,4.81-7.93c.77-1.93.69-2.9.52-3.31s-.38-.55-1.08-.66a5.63,5.63,0,0,0-1.68,0,1.08,1.08,0,0,1-1.24-.76l-.26-1a.94.94,0,0,1,.71-1.19,8.86,8.86,0,0,1,2.95-.08,4.14,4.14,0,0,1,3.39,2.51c.59,1.48.35,3.36-.53,5.54a40.57,40.57,0,0,1-5.19,8.59,25.18,25.18,0,0,1-6.64,5.73,85.26,85.26,0,0,1-10.47,5.57,267.34,267.34,0,0,1-28.72,10.74c-21.28,6.81-45.1,12.7-60.55,16l-.14,0a1,1,0,0,1-.52,0l-.13-.05c-19.1-6.33-47.84-16.19-72-25.16-12.09-4.49-23-8.76-31.11-12.27-4-1.75-7.35-3.33-9.74-4.66a24.2,24.2,0,0,1-2.93-1.85,7.88,7.88,0,0,1-1-.89,3.07,3.07,0,0,1-.69-1.18c-.4-1.39-.7-2.36-.91-3l-.19-.53a.26.26,0,0,0-.23-.16h0a.24.24,0,0,1-.24-.21,5.46,5.46,0,0,1-.05-.8,3.09,3.09,0,0,1,.06-.41,1.52,1.52,0,0,1,.16-.39h0a1,1,0,0,0,.11-.3l1-6.84a1,1,0,0,0-.41-.95,15,15,0,0,0-7.64-2.57c-3.33-.08-7,1.35-9.94,6.5a23,23,0,0,0-3.25,13.62,19.34,19.34,0,0,0,.4,2.56.7.7,0,0,0,.06.19l2.49,5.47a1,1,0,0,1-.39,1.26l-1,.64a1,1,0,0,1-1.28-.25,17.2,17.2,0,0,1-1.59-3c-.39-.89-1.59-.88-1.67.1,0,.49,0,1,0,1.6a.42.42,0,0,0,.73.29h0a.45.45,0,0,1,.64,0c2.94,3,4.11,5.66,4.24,8.07a12,12,0,0,1-1.08,5.09c-.08.21-.16.41-.22.6a3.83,3.83,0,0,0-.37,2c.08.41.38,1,1.56,1.89,2.48,1.8,8,4,19.39,7.16,31.36,8.63,81.85,13.15,104.2,14.4a1,1,0,0,1,.93,1.05l0,.26a1.09,1.09,0,0,0,1.4,1.07l.57-.14a22.09,22.09,0,0,1,6.58-.39.91.91,0,0,0,.4,0l.58-.19a41.71,41.71,0,0,1,9.42-1.88,13.65,13.65,0,0,1,4.71.4,4.57,4.57,0,0,1,3.27,3c.83,2.76.55,4.94-.88,6.37a6.38,6.38,0,0,1-4.56,1.56,4.41,4.41,0,0,1-1.41-.27,12.5,12.5,0,0,1-1.45-.58c-1-.47-2.14-1.11-3.29-1.8h0a.65.65,0,0,0-.93.83l4.49,9.27a1,1,0,0,1-.46,1.33l-.9.44a1,1,0,0,1-1.34-.46l-3.64-7.53a1,1,0,0,0-1.89.27l-1.54,9.26a1,1,0,0,1-1.15.82l-1-.16a1,1,0,0,1-.83-1.15l1.38-8.31a.79.79,0,0,0-1.23-.71h0l-.05,0a.75.75,0,0,1-.2.1l-.05,0a21.1,21.1,0,0,1-7.61,1.51,4.63,4.63,0,0,1-3.52-1.52,4.45,4.45,0,0,1-.31-4.4,8.07,8.07,0,0,1,1.51-2.59c.69-.79.26-2.61-.79-2.67-23.87-1.51-71.13-6-101.21-14.28-8.8-2.43-14.4-4.37-17.86-6.14a1,1,0,0,0-1.22.32h0c-3.66,5.76-9,14.17-13.64,22.72a125.6,125.6,0,0,0-6.66,14A36.57,36.57,0,0,0,188,365a1.07,1.07,0,0,1-1,1h-1a1,1,0,0,1-1-1,38.94,38.94,0,0,1,2.89-11.26,130.39,130.39,0,0,1,6.82-14.32c4.69-8.65,10.09-17.15,13.75-22.9l0-.07a1.11,1.11,0,0,0-.16-1.32,4.93,4.93,0,0,1-1.36-4.51,1.24,1.24,0,0,0-.22-.95,8.91,8.91,0,0,1-.83-1.41,35.78,35.78,0,0,1-2.44-7.95c-1.42-6.74.27-11.09,2.15-13.15a1.1,1.1,0,0,0,.3-.79,26.28,26.28,0,0,1,3.72-14.11C213.15,266.21,217.82,264.14,222.31,264.24Zm-12.86,43.92Zm-.83-3.67c0,.63-.68.7-.88.1-.09-.26-.18-.55-.27-.85-.29-1,.71-1.4,1-.41a5.87,5.87,0,0,1,.18,1.16Zm143.09,34.13a.93.93,0,0,0-.33,1.72l1.52.94c1.1.66,2.15,1.24,3,1.65a8,8,0,0,0,1.1.45l.35.1.13,0h0a3.52,3.52,0,0,0,2.44-.69c.32-.32.79-1.14.12-3.38-.1-.34-.39-.7-1.27-1a11,11,0,0,0-3.65-.28A29.82,29.82,0,0,0,351.71,338.62ZM344,341.4a.85.85,0,0,0-.78-1.18,18.52,18.52,0,0,0-4.52.39c-2.54.58-4.49,1.79-5.24,3.9-.42,1.19-.17,1.5-.15,1.53s.39.32,1.32.38a17.88,17.88,0,0,0,6.1-1.22,1,1,0,0,0,.23-.12,10.78,10.78,0,0,0,2.19-2.23A8.86,8.86,0,0,0,344,341.4ZM231.21,279.93a.11.11,0,0,0-.07-.21h-1.56a0,0,0,0,0,0,.06h0a1.45,1.45,0,0,0,1.66.16Zm232.18-4.83a26.65,26.65,0,0,0-8.26-.68,1,1,0,0,1-1.08-.92l-.1-1a1,1,0,0,1,.91-1.07,29.63,29.63,0,0,1,9.37.79,8.71,8.71,0,0,1,4.35,2.54,5.27,5.27,0,0,1,.85,5.19,18.13,18.13,0,0,0-.41,5.15c0,1.44.09,3,.16,4.66,0,.45.05.91.06,1.38a1,1,0,0,0,.72.92,42.17,42.17,0,0,1,6.26,2.54,23,23,0,0,1,7.06,5.18,9.27,9.27,0,0,1,2.45,7.77c-.51,2.94-2.54,5.94-6.28,9a28.14,28.14,0,0,1-6.16,3.64,1,1,0,0,0-.45,1.46c4,6.45,9.28,15.27,13.78,23.39,2.56,4.6,4.88,9,6.56,12.62.84,1.8,1.53,3.43,2,4.81a15.85,15.85,0,0,1,.71,2.56.88.88,0,0,1-.91,1h-1a1.25,1.25,0,0,1-1.15-1c-.11-.41-.26-.93-.48-1.56-.44-1.25-1.09-2.79-1.91-4.55-1.64-3.52-3.91-7.85-6.46-12.43-4.66-8.39-10.17-17.56-14.2-24a1,1,0,0,0-1.18-.41c-10.63,3.69-25.81,6.11-40.94,7.64-15.61,1.58-31.31,2.23-42.17,2.33a1,1,0,0,1-1-1v-1a1,1,0,0,1,1-1c10.78-.1,26.38-.75,41.89-2.32,16-1.62,31.82-4.22,42.08-8.16a29.92,29.92,0,0,0,8.09-4.31c3.46-2.81,4.89-5.22,5.22-7.16a6.3,6.3,0,0,0-1.76-5.31,20.38,20.38,0,0,0-6.14-4.46,39.4,39.4,0,0,0-4.16-1.78,1,1,0,0,0-1.31.94c0,4.69-.29,9.62-1.82,13.7A13.47,13.47,0,0,1,455,319.45a1,1,0,0,1-1-.95l0-1a1,1,0,0,1,1-1.05,10.48,10.48,0,0,0,9.81-7.37c1.68-4.48,1.75-10.37,1.55-16,0-1-.09-2.07-.13-3.08-.08-1.71-.15-3.35-.17-4.82a21.07,21.07,0,0,1,.55-6.1,2.32,2.32,0,0,0-.29-2.38A5.88,5.88,0,0,0,463.39,275.1Z"/><path class="cls-21" d="M309.23,87.27a4.22,4.22,0,0,1,2.6,1.63,5.3,5.3,0,0,1-.8,6.7,7.4,7.4,0,0,1-5,1.4H300V95.33h2V80.67h-2V79h6.1a7.27,7.27,0,0,1,4.43,1.1A3.74,3.74,0,0,1,312,83.27a4.43,4.43,0,0,1-.67,2.43,3.77,3.77,0,0,1-2.07,1.5Zm-3.1,8.06a5.46,5.46,0,0,0,3.3-.8,3.27,3.27,0,0,0,1.1-2.8,3.08,3.08,0,0,0-1-2.56,4.94,4.94,0,0,0-3.2-.84H304v7Zm0-8.66c2.49,0,3.74-1,3.74-3.1a2.55,2.55,0,0,0-.94-2.24,5.21,5.21,0,0,0-3-.66h-2v6Zm14.63,8.66h2V97h-6V95.33h2V80.67H317V79h5.8a7.37,7.37,0,0,1,4.54,1.13,4.06,4.06,0,0,1,1.43,3.37c0,2.64-1.4,4.27-4.2,4.87v.06a4.68,4.68,0,0,1,1,.84,9.21,9.21,0,0,1,1.33,2l2.2,4h1.67V97h-3.2c-.27-.6-.52-1.13-.77-1.6s-.48-.9-.7-1.3l-1.23-2.3c-.45-.78-.8-1.37-1.07-1.77a4.36,4.36,0,0,0-.9-1,2.17,2.17,0,0,0-1.3-.36h-.83Zm1.6-8.33a5.49,5.49,0,0,0,3.2-.77,2.91,2.91,0,0,0,1.1-2.53,2.64,2.64,0,0,0-1-2.37,5.58,5.58,0,0,0-3.07-.66h-1.83V87Zm11.72,1a10.93,10.93,0,0,1,1.9-6.8,6.24,6.24,0,0,1,5.2-2.5,5.81,5.81,0,0,1,5,2.4,10.89,10.89,0,0,1,1.8,6.66A11.47,11.47,0,0,1,346,94.8a6.05,6.05,0,0,1-5.1,2.53,5.92,5.92,0,0,1-5-2.46A11.29,11.29,0,0,1,334.08,88Zm2.1-.1a10.6,10.6,0,0,0,1.27,5.7A4.08,4.08,0,0,0,341,95.5a4,4,0,0,0,3.53-1.93,10.42,10.42,0,0,0,1.3-5.74,9.85,9.85,0,0,0-1.23-5.46,3.93,3.93,0,0,0-3.54-1.87,4.17,4.17,0,0,0-3.63,1.8A9.82,9.82,0,0,0,336.18,87.87Zm30.43,6.46,4-13.66h-1.7V79h5.34v1.67h-1.74l-5.13,16.5h-1.93l-3.2-9.77h-.07l-3.13,9.77h-1.94l-5.23-16.5h-1.63V79h5.33v1.67H354l4.2,13.66h.07l3.1-9.63-1.34-4h-1.76V79h5.66v1.67H362l4.5,13.66Zm22.55-13.66h-2V79H393v1.67h-2V97h-1.93L381,83h-.07V95.33h2V97H377V95.33h2V80.67h-2V79h4l8.07,13.87h.07Z"/><path class="cls-21" d="M309.23,87.27h-.5v.39l.38.09ZM311,95.6l-.32-.38h0ZM300,97h-.5v.5h.5Zm0-1.67v-.5h-.5v.5Zm2,0v.5h.5v-.5Zm0-14.66h.5v-.5H302Zm-2,0h-.5v.5h.5ZM300,79v-.5h-.5V79Zm10.53,1.1-.3.4h0Zm.77,5.6-.42-.27h0Zm-2.07,1.5-.16-.47-.34.11v.36Zm.2,7.33.3.4h0Zm.07-5.36-.32.38h0Zm-5.5-.84v-.5h-.5v.5Zm0,7h-.5v.5h.5Zm4.93-14-.29.41h0ZM304,80.67v-.5h-.5v.5Zm0,6h-.5v.5h.5Zm5.11,1.08a3.76,3.76,0,0,1,2.31,1.44l.82-.58a4.73,4.73,0,0,0-2.89-1.83Zm2.31,1.44a4.31,4.31,0,0,1,.75,2.54h1a5.39,5.39,0,0,0-.93-3.12Zm.75,2.54a4.32,4.32,0,0,1-1.46,3.49l.65.76a5.31,5.31,0,0,0,1.81-4.25Zm-1.47,3.49c-.93.82-2.44,1.28-4.63,1.28v1A7.91,7.91,0,0,0,311.36,96Zm-4.63,1.28H300v1h6.07Zm-5.57.5V95.33h-1V97Zm-.5-1.17h2v-1h-2Zm2.5-.5V80.67h-1V95.33ZM302,80.17h-2v1h2Zm-1.5.5V79h-1v1.67ZM300,79.5h6.1v-1H300Zm6.1,0a6.76,6.76,0,0,1,4.13,1l.61-.8a7.79,7.79,0,0,0-4.74-1.2Zm4.13,1a3.26,3.26,0,0,1,1.24,2.77h1a4.29,4.29,0,0,0-1.63-3.57Zm1.24,2.77a3.86,3.86,0,0,1-.59,2.16l.84.54a4.92,4.92,0,0,0,.75-2.7Zm-.59,2.16a3.35,3.35,0,0,1-1.81,1.3l.33.94a4.3,4.3,0,0,0,2.32-1.7Zm-2.15,1.77v.07h1V87.2Zm-2.6,8.63a6,6,0,0,0,3.6-.9l-.6-.8a5,5,0,0,1-3,.7Zm3.6-.9a3.76,3.76,0,0,0,1.3-3.2h-1a2.79,2.79,0,0,1-.9,2.4Zm1.3-3.2a3.6,3.6,0,0,0-1.22-3l-.62.78a2.61,2.61,0,0,1,.84,2.17Zm-1.21-3a5.49,5.49,0,0,0-3.52-1v1a4.53,4.53,0,0,1,2.88.72Zm-3.52-1H304v1h2.3Zm-2.8.5v7h1v-7Zm.5,7.5h2.13v-1H304Zm2.13-8.66a4.81,4.81,0,0,0,3.12-.89,3.35,3.35,0,0,0,1.12-2.71h-1a2.35,2.35,0,0,1-.76,1.94,3.82,3.82,0,0,1-2.48.66Zm4.24-3.6a3,3,0,0,0-1.15-2.64l-.58.81a2.06,2.06,0,0,1,.73,1.83Zm-1.15-2.64a5.59,5.59,0,0,0-3.25-.76v1a4.73,4.73,0,0,1,2.67.57ZM306,80.17h-2v1h2Zm-2.47.5v6h1v-6Zm.5,6.5h2.13v-1H304Zm16.76,8.16h-.5v.5h.5Zm2,0h.5v-.5h-.5Zm0,1.67v.5h.5V97Zm-6,0h-.5v.5h.5Zm0-1.67v-.5h-.5v.5Zm2,0v.5h.5v-.5Zm0-14.66h.5v-.5h-.5Zm-1.77,0h-.5v.5h.5ZM317,79v-.5h-.5V79Zm10.34,1.13.31-.39h0Zm-2.77,8.24-.11-.49-.39.08v.41Zm0,.06h-.5v.29l.25.15Zm1,.84-.37.34h0Zm1.33,2-.44.24h0Zm2.2,4-.44.24.14.26h.3Zm1.67,0h.5v-.5h-.5Zm0,1.67v.5h.5V97Zm-3.2,0-.46.2.13.3h.33Zm-.77-1.6.44-.23h0Zm-.7-1.3-.44.24h0Zm-1.23-2.3.44-.24h0ZM323.79,90l.42-.27h0Zm-.9-1,.31-.39h0Zm-2.13-.36v-.5h-.5v.5Zm4.8-2.44.29.41h0Zm.1-4.9-.29.42h0Zm-4.9-.66v-.5h-.5v.5Zm0,6.33h-.5v.5h.5Zm0,8.83h2v-1h-2Zm1.5-.5V97h1V95.33Zm.5,1.17h-6v1h6Zm-5.5.5V95.33h-1V97Zm-.5-1.17h2v-1h-2Zm2.5-.5V80.67h-1V95.33Zm-.5-15.16H317v1h1.77Zm-1.27.5V79h-1v1.67ZM317,79.5h5.8v-1H317Zm5.8,0a6.75,6.75,0,0,1,4.22,1l.63-.79a7.8,7.8,0,0,0-4.85-1.24Zm4.22,1a3.53,3.53,0,0,1,1.25,3h1a4.54,4.54,0,0,0-1.62-3.76Zm1.25,3a4.25,4.25,0,0,1-.93,2.87,5.07,5.07,0,0,1-2.88,1.51l.21,1A6.13,6.13,0,0,0,328.09,87a5.28,5.28,0,0,0,1.17-3.53Zm-4.2,4.87v.06h1v-.06Zm.25.5a3.73,3.73,0,0,1,.88.74l.73-.69a5,5,0,0,0-1.11-.92Zm.89.75a8.79,8.79,0,0,1,1.25,1.92l.88-.48a9.87,9.87,0,0,0-1.42-2.15Zm1.25,1.92,2.2,4,.88-.48-2.2-4Zm2.64,4.29h1.67v-1h-1.67Zm1.17-.5V97h1V95.33Zm.5,1.17h-3.2v1h3.2Zm-2.74.3c-.28-.61-.54-1.15-.79-1.63l-.88.46c.24.46.49,1,.75,1.57Zm-.79-1.63c-.24-.47-.48-.91-.7-1.31l-.88.48c.22.4.46.83.7,1.29Zm-.7-1.31-1.23-2.3-.88.48,1.23,2.3Zm-1.24-2.31c-.44-.78-.81-1.38-1.08-1.79l-.83.55c.25.39.6,1,1,1.74Zm-1.08-1.79a5,5,0,0,0-1-1.12l-.62.78a4.11,4.11,0,0,1,.8.89Zm-1-1.13a2.67,2.67,0,0,0-1.6-.46v1a1.65,1.65,0,0,1,1,.27Zm-1.6-.46h-.83v1h.83Zm-1.33.5v6.66h1V88.67Zm2.1-1.17a5.94,5.94,0,0,0,3.49-.86l-.58-.81a5.06,5.06,0,0,1-2.91.67Zm3.49-.86a3.42,3.42,0,0,0,1.31-2.94h-1a2.43,2.43,0,0,1-.9,2.13Zm1.31-2.94a3.11,3.11,0,0,0-1.23-2.78l-.55.83a2.14,2.14,0,0,1,.78,2Zm-1.22-2.78a6,6,0,0,0-3.35-.75v1a5.09,5.09,0,0,1,2.78.57Zm-3.35-.75h-1.83v1h1.83Zm-2.33.5V87h1V80.67Zm.5,6.83h1.6v-1h-1.6ZM336,81.17l-.39-.31h0Zm10.17-.1-.4.29h0ZM346,94.8l-.4-.3h0ZM336,94.87l-.4.3h0Zm1.5-1.3-.42.27h0Zm7.1,0-.42-.28h0Zm.07-11.2-.42.27h0Zm-7.17-.07.41.29h0ZM334.58,88a10.41,10.41,0,0,1,1.8-6.5l-.79-.61a11.37,11.37,0,0,0-2,7.11Zm1.8-6.5a5.72,5.72,0,0,1,4.8-2.3v-1a6.73,6.73,0,0,0-5.59,2.69Zm4.8-2.3a5.32,5.32,0,0,1,4.57,2.19l.8-.59a6.3,6.3,0,0,0-5.37-2.6Zm4.57,2.2a10.41,10.41,0,0,1,1.7,6.36h1a11.34,11.34,0,0,0-1.9-7Zm1.7,6.36a10.94,10.94,0,0,1-1.83,6.77l.79.6a11.88,11.88,0,0,0,2-7.37Zm-1.83,6.77a5.56,5.56,0,0,1-4.7,2.33v1a6.56,6.56,0,0,0,5.5-2.73Zm-4.7,2.33a5.43,5.43,0,0,1-4.57-2.27l-.8.61a6.41,6.41,0,0,0,5.37,2.66Zm-4.57-2.26a10.8,10.8,0,0,1-1.77-6.6h-1a11.84,11.84,0,0,0,2,7.2Zm-.67-6.7a11,11,0,0,0,1.35,6l.84-.54a10.12,10.12,0,0,1-1.19-5.43Zm1.35,6A4.59,4.59,0,0,0,341,96V95a3.61,3.61,0,0,1-3.16-1.71ZM341,96a4.5,4.5,0,0,0,4-2.16l-.84-.55A3.5,3.5,0,0,1,341,95Zm4-2.16a10.94,10.94,0,0,0,1.38-6h-1a9.93,9.93,0,0,1-1.22,5.46Zm1.38-6A10.34,10.34,0,0,0,345,82.09l-.83.56a9.36,9.36,0,0,1,1.15,5.18ZM345,82.1a4.43,4.43,0,0,0-4-2.1v1a3.44,3.44,0,0,1,3.12,1.64Zm-4-2.1a4.69,4.69,0,0,0-4,2l.82.58A3.66,3.66,0,0,1,341.08,81Zm-4,2a10.28,10.28,0,0,0-1.36,5.86h1c0-2.48.42-4.21,1.18-5.28Zm29.57,12.32v.5H367l.11-.36Zm4-13.66.48.14.19-.64h-.67Zm-1.7,0h-.5v.5h.5Zm0-1.67v-.5h-.5V79Zm5.34,0h.5v-.5h-.5Zm0,1.67v.5h.5v-.5Zm-1.74,0v-.5h-.37l-.1.35Zm-5.13,16.5v.5h.37l.11-.35Zm-1.93,0-.48.15.11.35h.37Zm-3.2-9.77.47-.16-.11-.34h-.36Zm-.07,0v-.5h-.37l-.11.35Zm-3.13,9.77v.5h.36l.11-.35Zm-1.94,0-.47.15.11.35h.36Zm-5.23-16.5.48-.15-.12-.35h-.36Zm-1.63,0h-.5v.5h.5Zm0-1.67v-.5h-.5V79Zm5.33,0h.5v-.5h-.5Zm0,1.67v.5h.5v-.5Zm-1.6,0v-.5h-.68l.2.64Zm4.2,13.66-.48.15.11.35h.37Zm.07,0v.5h.36l.11-.34Zm3.1-9.63.47.15,0-.15,0-.16Zm-1.34-4,.48-.16-.12-.34H360Zm-1.76,0h-.5v.5h.5Zm0-1.67v-.5h-.5V79Zm5.66,0h.5v-.5h-.5Zm0,1.67v.5h.5v-.5Zm-1.9,0v-.5h-.69l.22.65Zm4.5,13.66-.47.16.11.34h.36Zm.55.14,4-13.66-1-.28-4,13.66Zm3.55-14.3h-1.7v1h1.7Zm-1.2.5V79h-1v1.67Zm-.5-1.17h5.34v-1h-5.34Zm4.84-.5v1.67h1V79Zm.5,1.17h-1.74v1h1.74Zm-2.21.35L366.93,97l1,.3L373,80.82Zm-4.66,16.15h-1.93v1h1.93ZM366,97l-3.2-9.77-.95.32,3.2,9.76ZM362.28,86.9h-.07v1h.07Zm-.55.35L358.6,97l.95.31,3.13-9.77Zm-2.65,9.42h-1.94v1h1.94Zm-1.46.35-5.23-16.5-1,.3,5.24,16.5Zm-5.71-16.85h-1.63v1h1.63Zm-1.13.5V79h-1v1.67Zm-.5-1.17h5.33v-1h-5.33Zm4.83-.5v1.67h1V79Zm.5,1.17H354v1h1.6Zm-2.08.64,4.2,13.67,1-.29-4.2-13.67Zm4.68,14h.07v-1h-.07Zm.54-.34,3.1-9.64-1-.3-3.1,9.63Zm3.1-9.95-1.33-4-.95.31,1.33,4ZM360,80.17h-1.76v1H360Zm-1.26.5V79h-1v1.67Zm-.5-1.17h5.66v-1h-5.66Zm5.16-.5v1.67h1V79Zm.5,1.17H362v1h1.9Zm-2.37.65,4.5,13.67.95-.31-4.5-13.67Zm5,14h.07v-1h-.07Zm22.62-14.16h.5v-.5h-.5Zm-2,0h-.5v.5h.5Zm0-1.67v-.5h-.5V79ZM393,79h.5v-.5H393Zm0,1.67v.5h.5v-.5Zm-2,0v-.5h-.5v.5ZM391,97v.5h.5V97Zm-1.93,0-.43.25.14.25h.29ZM381,83l.43-.25-.14-.25H381Zm-.07,0v-.5h-.5V83Zm0,12.36h-.5v.5h.5Zm2,0h.5v-.5h-.5Zm0,1.67v.5h.5V97ZM377,97h-.5v.5h.5Zm0-1.67v-.5h-.5v.5Zm2,0v.5h.5v-.5Zm0-14.66h.5v-.5H379Zm-2,0h-.5v.5h.5ZM377,79v-.5h-.5V79Zm4,0,.44-.25-.15-.25H381Zm8.07,13.87-.43.25.14.25h.29Zm.07,0v.5h.5v-.5Zm0-12.7h-2v1h2Zm-1.5.5V79h-1v1.67Zm-.5-1.17H393v-1h-5.86Zm5.36-.5v1.67h1V79Zm.5,1.17h-2v1h2Zm-2.5.5V97h1V80.67ZM391,96.5h-1.93v1H391Zm-1.5.25-8.13-14-.86.5,8.13,14ZM381,82.47h-.07v1H381Zm-.57.5V95.33h1V83Zm.5,12.86h2v-1h-2Zm1.5-.5V97h1V95.33Zm.5,1.17H377v1h5.87Zm-5.37.5V95.33h-1V97Zm-.5-1.17h2v-1h-2Zm2.5-.5V80.67h-1V95.33ZM379,80.17h-2v1h2Zm-1.5.5V79h-1v1.67ZM377,79.5h4v-1h-4Zm3.57-.25,8.07,13.87.86-.5-8.06-13.87Zm8.5,14.12h.07v-1h-.07Zm.57-.5V80.67h-1v12.2Z"/><rect class="cls-4" x="338" y="122" width="18" height="31"/><path class="cls-27" d="M322,170a2.17,2.17,0,0,1-2,2.1,26,26,0,0,0-12.08,4.62,2.23,2.23,0,0,1-2.92-.22h0a1.84,1.84,0,0,1,.18-2.74A29.81,29.81,0,0,1,320,168.08a1.89,1.89,0,0,1,2,1.92Z"/><path class="cls-27" d="M390.6,167.48a2.15,2.15,0,0,1,2.88-.24,25.89,25.89,0,0,0,12.1,4.58,2.24,2.24,0,0,1,2,2.1h0a1.84,1.84,0,0,1-2,1.93,29.86,29.86,0,0,1-14.85-5.61,1.87,1.87,0,0,1-.21-2.76Z"/><path class="cls-28" d="M147.72,255.66v-3c-7.43-.64-14-2.93-18-6.69-2.74-2.49-4.3-5.32-4.3-8.25,0-3.81,2.79-6,6.25-6,2.15,0,3.91.68,6.69,3,4.35,3.95,9.13,6,14.06,6,6.89,0,10.6-3.07,10.6-7.76,0-3.66-2.78-5.81-9.81-7.32l-9.18-2c-11.82-2.44-17.78-8.79-17.78-18.75,0-11.28,8.5-19.19,21.68-20.41v-3.41c0-3.18,2.25-4.25,4.45-4.25s4.44,1.12,4.44,4.25v3.51c6.49.83,12.3,3.08,15.92,6.59,2.73,2.59,4.2,5.47,4.2,8.21a5.43,5.43,0,0,1-5.62,5.46c-2.64,0-4.64-.92-7.08-3-4.15-4-7.67-5.52-12.55-5.52-5.76,0-9.42,3.27-9.42,7.37,0,3.67,2.83,6,9,7.23l9.23,1.9c12.3,2.4,18.36,8.5,18.36,18.51,0,11.57-8.55,19.58-22.22,21.19v3.08c0,3.12-2.24,4.25-4.44,4.25S147.72,258.78,147.72,255.66Z"/><path class="cls-28" d="M500.2,91.66A7.83,7.83,0,0,1,503,92.87a6,6,0,0,1,1.5,8.85c-1.85,2.66-4.77,3.35-8.38,2L471.26,97l-.31.44,14.36,21.45c2.45,3.09,2.78,6.1,1,8.69-2.19,3.12-5.87,3.89-8.86,1.8a7.34,7.34,0,0,1-2.1-2.28l-13.88-24c-3.42-5.18-3.29-9-.62-12.8,2.81-4,6.6-5.51,12.35-4Z"/><path class="cls-28" d="M484,150.36a5.65,5.65,0,0,1-1.36-8,5.85,5.85,0,0,1,1.42-1.44l49.43-40.43a5.81,5.81,0,0,1,8.47,7.81,10.21,10.21,0,0,1-1.41,1.44l-49.47,40.4A5.66,5.66,0,0,1,484,150.36Z"/><path class="cls-28" d="M562.64,161.67c-2.66,3.81-6.16,5.26-12.2,3.82l-27.26-4.85a7.46,7.46,0,0,1-2.89-1.22c-3-2.07-3.53-5.81-1.34-8.94,1.81-2.58,4.78-3.28,8.49-2.06l25.1,6.18.32-.44-14.77-21c-2.55-2.95-2.89-5.93-1-8.58a6,6,0,0,1,8.87-1.59A7.59,7.59,0,0,1,548,125.1l14.21,23.63C565.6,153.61,565.45,157.66,562.64,161.67Z"/></g></svg>