<?xml version="1.0" encoding="utf-8"?>
<!-- Generator: Adobe Illustrator 24.3.0, SVG Export Plug-In . SVG Version: 6.00 Build 0)  -->
<svg version="1.1" id="Layer_1" xmlns="http://www.w3.org/2000/svg" xmlns:xlink="http://www.w3.org/1999/xlink" x="0px" y="0px"
	 viewBox="0 0 728 350" style="enable-background:new 0 0 728 350;" xml:space="preserve">
<style type="text/css">
	.st0{clip-path:url(#SVGID_2_);}
	.st1{fill:#FFF7EC;}
	.st2{fill:none;stroke:#C07F5F;stroke-width:7.6;}
	.st3{fill-rule:evenodd;clip-rule:evenodd;fill:#6A1D1D;}
	.st4{fill:none;}
	.st5{fill:#BE7958;}
	.st6{fill:url(#SVGID_3_);filter:url(#Adobe_OpacityMaskFilter);}
	.st7{mask:url(#mask0_1_);}
	.st8{fill:#221009;}
	.st9{fill:#E3C3AC;}
	.st10{fill-rule:evenodd;clip-rule:evenodd;fill:#221009;}
	.st11{fill:#C07F5F;}
</style>
<g>
	<defs>
		<rect id="SVGID_1_" width="728" height="350"/>
	</defs>
	<clipPath id="SVGID_2_">
		<use xlink:href="#SVGID_1_"  style="overflow:visible;"/>
	</clipPath>
	<g class="st0">
		<rect class="st1" width="728" height="350"/>
		<g>
			<circle class="st2" cx="500.5" cy="314.5" r="10.5"/>
		</g>
		<path class="st3" d="M339.9,61.4c48,7.1,82.5,39.4,117.4,73.2c45.7,44.2,113.9,81.9,108.4,145.2c-5.9,67.7-70,115.8-133.3,140.7
			c-57.7,22.7-118.8,5.3-175.8-19C194.7,375,125,346.3,106.7,281.5c-19-67.4,11.5-141.6,62.3-189.6C213.3,50,279.7,52.4,339.9,61.4z
			"/>
		<g>
			<path class="st4" d="M339.9,61.4c48,7.1,82.5,39.4,117.4,73.2c45.7,44.2,113.9,81.9,108.4,145.2c-5.9,67.7-70,115.8-133.3,140.7
				c-57.7,22.7-118.8,5.3-175.8-19C194.7,375,125,346.3,106.7,281.5c-19-67.4,11.5-141.6,62.3-189.6C213.3,50,279.7,52.4,339.9,61.4
				z"/>
		</g>
		<circle class="st2" cx="346.5" cy="191.5" r="10.5"/>
		<g>
			<path class="st5" d="M192,390.2c0,0,29.5-96.6,37.2-135.4c7.6-38.8,16.7-90.6,16.7-90.6s-47.7-33.4-2.3-46.2c0,0,10-2.8,23.3,0
				c0,0,54-61.7,151.4-8.5c0,0,31.8,0.7,37.1,10.7c5.3,10,1.5,22.4-10.2,30.3c0,0,9.1,96.9,9.1,111.8c0,15,36.5,112.4,57.8,127.8
				C533.4,405.6,192,390.2,192,390.2z"/>
		</g>
		<defs>
			<filter id="Adobe_OpacityMaskFilter" filterUnits="userSpaceOnUse" x="32" y="-57" width="624.1" height="600.7">
				<feColorMatrix  type="matrix" values="1 0 0 0 0  0 1 0 0 0  0 0 1 0 0  0 0 0 1 0"/>
			</filter>
		</defs>
		<mask maskUnits="userSpaceOnUse" x="32" y="-57" width="624.1" height="600.7" id="mask0_1_">
			
				<linearGradient id="SVGID_3_" gradientUnits="userSpaceOnUse" x1="435.8049" y1="232.0702" x2="313.3049" y2="-26.4838" gradientTransform="matrix(1 0 0 -1 0 352)">
				<stop  offset="0" style="stop-color:#D7987B"/>
				<stop  offset="1" style="stop-color:#B97352"/>
			</linearGradient>
			<path class="st6" d="M192,390.2c0,0,29.5-96.6,37.2-135.4c7.6-38.8,16.7-90.6,16.7-90.6s-47.7-33.4-2.3-46.2c0,0,10-2.8,23.3,0
				c0,0,54-61.7,151.4-8.5c0,0,31.8,0.7,37.1,10.7c5.3,10,1.5,22.4-10.2,30.3c0,0,9.1,96.9,9.1,111.8c0,15,36.5,112.4,57.8,127.8
				C533.4,405.6,192,390.2,192,390.2z"/>
		</mask>
		<g class="st7">
			<g>
				<rect x="130.1" y="2.3" transform="matrix(0.456 -0.89 0.89 0.456 -29.3927 438.6089)" class="st4" width="428" height="482"/>
			</g>
		</g>
		<path class="st8" d="M337.2,153.3c0,0-3.8-6.6-11.7-1.3c-7.8,5.3-5.6,10.2,1.8,9.2C334.9,160.2,338.1,157.6,337.2,153.3z"/>
		<path class="st8" d="M403,161.7c0,0-10.3-1.8-10.9-6.9c-0.6-5.1,5-6.1,8.6-3.6C404.4,153.9,409.7,161.4,403,161.7z"/>
		<path class="st8" d="M261.4,127.9c0,0-23.3-4.3-15.7,10.1c2.7,3.6,5.7,7,8.9,10.2L261.4,127.9z"/>
		<path class="st8" d="M432,123.9l8.6,13.6c0,0,9.4-6.4,7.2-11.6C445.6,120.7,438,121.7,432,123.9z"/>
		<path class="st9" d="M370.6,266.8c0,0-14.7-0.2-23-6.2c-8.3-6-23.3-17.8-32.2-40.9c0,0-7.7-24.8,7.3-36c15.1-11.1,64-15,78.2-4.7
			c0,0,15.6,5,13.4,29c-2.2,24-12.6,37.9-16.5,42.5C393.9,255.3,386.5,264.8,370.6,266.8z"/>
		<path class="st8" d="M379.5,175c0,4.5-5.6,8.2-12.5,8.2c-0.7,0-1.4,0-2.1-0.1c-0.5-0.1-1-0.1-1.5-0.2c-5.1-1-8.8-4.1-8.8-7.8
			c0-4.5,5.6-8.2,12.5-8.2S379.5,170.4,379.5,175z"/>
		<path class="st10" d="M388.8,199c0.5,1,0.3,2.4-0.5,3.1c-9.1,8.2-19.1,7.6-26.5,5.2c-3.7-1.2-6.9-2.9-9.2-4.3
			c-1.1-0.7-2-1.3-2.6-1.8c-0.3-0.2-0.5-0.4-0.7-0.5c-0.1-0.1-0.1-0.1-0.2-0.2c0,0,0,0-0.1,0l0,0l0,0l0,0c0,0,0,0,1-1.9l-1,1.9
			c-0.8-0.6-1-2-0.4-3c0.5-1,1.6-1.4,2.4-0.7l-1,1.9c1-1.9,1-1.9,1-1.9l0,0c0,0,0,0,0,0l0,0c0,0,0,0,0,0c0,0,0.1,0.1,0.2,0.1
			c0.1,0.1,0.4,0.3,0.6,0.5c0.6,0.4,1.4,1,2.4,1.7c2.1,1.3,5.1,2.9,8.6,4.1c7,2.3,15.8,2.6,23.7-4.5
			C387.2,197.7,388.3,198,388.8,199z"/>
		<path class="st10" d="M368,178.5c1.2-0.2,2.3,0.7,2.5,1.9l3.1,24.8c0.2,1.2-0.7,2.3-1.9,2.5c-1.2,0.2-2.3-0.7-2.5-1.9l-3.1-24.8
			C365.9,179.7,366.7,178.6,368,178.5z"/>
		<path class="st11" d="M638.3,19.7L638.3,19.7c1.9,1.5,2.3,4.3,0.8,6.2l-16.3,21.3c-1.5,1.9-4.3,2.3-6.2,0.8l0,0
			c-1.9-1.5-2.3-4.3-0.8-6.2l16.3-21.3C633.6,18.6,636.4,18.2,638.3,19.7z"/>
		<path class="st11" d="M584.1,145.2L584.1,145.2c1.7-1.8,4.5-1.8,6.3-0.1l19.3,18.7c1.8,1.7,1.8,4.5,0.1,6.3l0,0
			c-1.7,1.8-4.5,1.8-6.3,0.1l-19.3-18.7C582.4,149.8,582.4,147,584.1,145.2z"/>
		<path class="st11" d="M390.4-6.7L390.4-6.7c2.1,1.3,2.8,4,1.5,6.1l-14,22.9c-1.3,2.1-4,2.8-6.1,1.5l0,0c-2.1-1.3-2.8-4-1.5-6.1
			l14-22.9C385.6-7.3,388.3-8,390.4-6.7z"/>
		<path class="st11" d="M622.4,325L622.4,325c-1.3-2.1-0.8-4.8,1.3-6.2l22.5-14.6c2.1-1.3,4.8-0.8,6.2,1.3l0,0
			c1.3,2.1,0.8,4.8-1.3,6.2l-22.5,14.6C626.5,327.7,623.8,327.1,622.4,325z"/>
		<path class="st11" d="M81.7,293.6L81.7,293.6c2,1.5,2.4,4.2,1,6.2l-15.8,21.7c-1.5,2-4.2,2.4-6.2,1l0,0c-2-1.5-2.4-4.2-1-6.2
			l15.8-21.7C76.9,292.6,79.7,292.2,81.7,293.6z"/>
		<path class="st11" d="M51.4,71.9L51.4,71.9c2.2-1.1,4.9-0.1,5.9,2.1l11.6,24.2c1.1,2.2,0.1,4.9-2.1,5.9h0
			c-2.2,1.1-4.9,0.1-5.9-2.1L49.3,77.9C48.3,75.7,49.2,73,51.4,71.9z"/>
		<circle class="st2" cx="489.5" cy="70.5" r="10.5"/>
		<circle class="st2" cx="717.5" cy="212.5" r="10.5"/>
		<circle class="st2" cx="10.5" cy="192.5" r="10.5"/>
		<circle class="st2" cx="146.5" cy="6.5" r="10.5"/>
	</g>
</g>
</svg>
