<svg xmlns="http://www.w3.org/2000/svg" xmlns:xlink="http://www.w3.org/1999/xlink" width="728" height="350" viewBox="0 0 728 350"><defs><clipPath id="a"><rect width="728" height="350"/></clipPath><linearGradient id="b" x1="0.531" y1="2.883" x2="0.359" y2="0.358" gradientUnits="objectBoundingBox"><stop offset="0" stop-color="#de2523"/><stop offset="1" stop-color="#211715"/></linearGradient><linearGradient id="c" x1="0.833" y1="7.765" x2="0.133" y2="7.102" gradientUnits="objectBoundingBox"><stop offset="0" stop-color="#9e192a"/><stop offset="1" stop-color="#2b201c"/></linearGradient><linearGradient id="d" x1="0.057" y1="-1.425" x2="0.572" y2="-2.009" gradientUnits="objectBoundingBox"><stop offset="0" stop-color="#fff"/><stop offset="1" stop-color="#fff" stop-opacity="0"/></linearGradient><clipPath id="e"><rect width="76" height="76" transform="translate(104.042 235.441) rotate(-68.001)"/></clipPath></defs><g clip-path="url(#a)"><rect width="728" height="350" fill="#fafcfd"/><path d="M385.7,38.4c52.2,3.2,91.6-45,90.3-62.9l-29,5.7L15.5-134-33.3,25.9c-3.6,75.6,7.7,249.4,8.6,217.2,1.1-40.3,49.3-112.8,131.5-115.7,82.2-2.8,53.8-51.6,106.5-89C266.1.9,320.5,34.4,385.7,38.4Z" fill="none" stroke="#707070" stroke-width="12"/><path d="M296.3,206c22-55.8,30.9-168.4-109.5-172C170.3,87.5,169.1,196.8,296.3,206Z" fill="#ffda55"/><path d="M185.5,34l26.6,32.5m120.4,147-52-63.5M212.1,66.5l13.4-42m-13.4,42L236.3,96m0,0-67.8-7m67.8,7,18.8,23m0,0,28.4-73m-28.4,73,25.4,31m0,0-95-6.5" fill="none" stroke="#eab735" stroke-width="4"/><rect width="482" height="428" transform="matrix(0.987, -0.164, 0.164, 0.987, -80.989, -25.046)" fill="none"/><path d="M409.8,391.4c59,10.8,171.2-2.4,147.5-140.8C501.6,244.8,394.1,264.9,409.8,391.4Z" fill="#ff9255"/><path d="M557,249.4l-26.7,32.4M409.4,428.4l52.2-63.3m68.7-83.3,43.8,5m-43.8-5L506,311.2m0,0-6.3-67.8m6.3,67.8-18.9,22.9m0,.1,77.1,13.7m-77.1-13.7-25.5,30.9m0,0-12-94.5" fill="none" stroke="#ea3f35" stroke-width="4"/><rect width="482" height="428" transform="matrix(0.987, -0.164, 0.164, 0.987, 234.026, 298.938)" fill="none"/><circle cx="10.5" cy="10.5" r="10.5" transform="translate(490 304)" fill="none" stroke="#c07f5f" stroke-width="7.6"/><circle cx="10.5" cy="10.5" r="10.5" transform="translate(336 181)" fill="none" stroke="#c07f5f" stroke-width="7.6"/><path d="M193,421.2s29.5-96.6,37.2-135.4c7.6-38.8,16.7-90.6,16.7-90.6s-47.7-33.4-2.3-46.2a53.542,53.542,0,0,1,23.3,0s54-61.7,151.4-8.5c0,0,31.8.7,37.1,10.7s1.5,22.4-10.2,30.3c0,0,9.1,96.9,9.1,111.8,0,15,36.5,112.4,57.8,127.8C534.4,436.6,193,421.2,193,421.2Z" fill="#be7958"/><rect width="428" height="482" transform="matrix(0.456, -0.89, 0.89, 0.456, 32.98, 354.87)" fill="none"/><path d="M327.2,190.7s-3.7-7.3-11.4-1.5c-7.7,5.9-5.5,11.4,1.8,10.3S328.1,195.5,327.2,190.7Z" fill="#221009"/><path d="M382.2,190.7s3.7-7.3,11.4-1.5c7.7,5.9,5.5,11.4-1.8,10.3C384.4,198.4,381.2,195.5,382.2,190.7Z" fill="#221009"/><path d="M262.4,158.9s-23.3-4.3-15.7,10.1a95.6,95.6,0,0,0,8.9,10.2Z" fill="#221009"/><path d="M433,154.9l8.6,13.6s9.4-6.4,7.2-11.6S439,152.7,433,154.9Z" fill="#221009"/><path d="M358.8,279.3s-14.7-.5-22.8-5.5-22.8-14.8-31-33.5c0,0-7-20.1,8.4-28.6,15.4-8.6,64.4-10.4,78.3-1.8,0,0,15.4,4.4,12.5,23.6a56.392,56.392,0,0,1-17.8,33.7C382.4,270.7,374.8,278.1,358.8,279.3Z" fill="#e3c3ac"/><path d="M368.9,205.2c0,4.5-5.6,8.2-12.5,8.2a14.768,14.768,0,0,1-2.1-.1c-.5-.1-1-.1-1.5-.2-5.1-1-8.8-4.1-8.8-7.8,0-4.5,5.6-8.2,12.5-8.2C363.4,197,368.9,200.7,368.9,205.2Z" fill="#221009"/><path d="M358.1,209.3a2.084,2.084,0,0,1,2.1,1.9l-.2,19.9a1.927,1.927,0,0,1-2.1,1.7,2.084,2.084,0,0,1-2.1-1.9L356,211A1.756,1.756,0,0,1,358.1,209.3Z" fill="#221009" fill-rule="evenodd"/><circle cx="15.5" cy="15.5" r="15.5" transform="translate(302.5 178.5)" fill="none" stroke="#d01c23" stroke-width="5"/><circle cx="15.5" cy="15.5" r="15.5" transform="translate(374.5 177.5)" fill="none" stroke="#d01c23" stroke-width="5"/><path d="M334,190.9l39.9.3-.1,5-39.8-.3Z" fill="#d01c23"/><ellipse cx="3" cy="2" rx="3" ry="2" transform="matrix(0.615, -0.788, 0.788, 0.615, 309.571, 188.146)" fill="#fff"/><circle cx="1.5" cy="1.5" r="1.5" transform="translate(308 190)" fill="#fff"/><path d="M422,132c0,50.8-27.6,4-69,4s-81,46.8-81-4,33.6-92,75-92S422,81.2,422,132Z" fill="#161513"/><rect width="169" height="39" transform="translate(272 68)" fill="#c91926"/><rect width="140" height="4" transform="translate(276 66)" fill="#f7f0ea"/><rect width="200" height="4" transform="translate(259 104)" fill="#f7f0ea"/><path d="M269,119H425a6.018,6.018,0,0,1,6,6v27a6.018,6.018,0,0,1-6,6H269a6.018,6.018,0,0,1-6-6V125A6.018,6.018,0,0,1,269,119Z" fill="#2b201c"/><path d="M269,119H425a6.018,6.018,0,0,1,6,6v27a6.018,6.018,0,0,1-6,6H269a6.018,6.018,0,0,1-6-6V125A6.018,6.018,0,0,1,269,119Z" fill="url(#b)"/><path d="M347,17l1.4,2.2,1.7-2,1,2.4,2-1.7.6,2.6,2.3-1.4.2,2.6,2.4-1-.2,2.6,2.6-.6-.6,2.6,2.6-.2-1,2.4,2.6.2L363.2,30l2.6.6-1.7,2,2.4,1-2,1.7L367,37l-2.2,1.4,2,1.7-2.4,1,1.7,2-2.6.6,1.4,2.3-2.6.2,1,2.4-2.6-.2.6,2.6-2.6-.6.2,2.6-2.4-1-.2,2.6L354,53.2l-.6,2.6-2-1.7-1,2.4-1.7-2L347,57l-1.4-2.2-1.7,2-1-2.4-2,1.7-.6-2.6L338,54.9l-.2-2.6-2.4,1,.2-2.6-2.6.6.6-2.6-2.6.2,1-2.4-2.6-.2,1.4-2.3-2.6-.6,1.7-2-2.4-1,2-1.7L327,37l2.2-1.4-2-1.7,2.4-1-1.7-2,2.6-.6L329.1,28l2.6-.2-1-2.4,2.6.2-.6-2.6,2.6.6-.2-2.6,2.4,1,.2-2.6,2.3,1.4.6-2.6,2,1.7,1-2.4,1.7,2Z" fill="#2b201c"/><path d="M347,17l1.4,2.2,1.7-2,1,2.4,2-1.7.6,2.6,2.3-1.4.2,2.6,2.4-1-.2,2.6,2.6-.6-.6,2.6,2.6-.2-1,2.4,2.6.2L363.2,30l2.6.6-1.7,2,2.4,1-2,1.7L367,37l-2.2,1.4,2,1.7-2.4,1,1.7,2-2.6.6,1.4,2.3-2.6.2,1,2.4-2.6-.2.6,2.6-2.6-.6.2,2.6-2.4-1-.2,2.6L354,53.2l-.6,2.6-2-1.7-1,2.4-1.7-2L347,57l-1.4-2.2-1.7,2-1-2.4-2,1.7-.6-2.6L338,54.9l-.2-2.6-2.4,1,.2-2.6-2.6.6.6-2.6-2.6.2,1-2.4-2.6-.2,1.4-2.3-2.6-.6,1.7-2-2.4-1,2-1.7L327,37l2.2-1.4-2-1.7,2.4-1-1.7-2,2.6-.6L329.1,28l2.6-.2-1-2.4,2.6.2-.6-2.6,2.6.6-.2-2.6,2.4,1,.2-2.6,2.3,1.4.6-2.6,2,1.7,1-2.4,1.7,2Z" fill="url(#c)"/><rect width="528.1" height="636.2" transform="matrix(0.456, -0.89, 0.89, 0.456, 90.063, 251.891)" fill="none"/><path d="M221.5,319l-13,35.5,274,15-22-59.5V297.5l-6-3.5v3.5l-15,8.5-27,10.5L367,322H330.5l-62-9-40-11.5-3-4-4,12.5Z" fill="#d1232a" stroke="#000" stroke-width="1"/><path d="M309.2,87.3a4.321,4.321,0,0,1,2.6,1.6,4.407,4.407,0,0,1,.8,2.8,4.987,4.987,0,0,1-1.6,3.9,7.65,7.65,0,0,1-5,1.4h-6V95.3h2V80.7h-2V79h6.1a7.274,7.274,0,0,1,4.4,1.1,3.615,3.615,0,0,1,1.4,3.2,3.986,3.986,0,0,1-.7,2.4,3.349,3.349,0,0,1-2,1.6Zm-3.1,8a5.71,5.71,0,0,0,3.3-.8,3.465,3.465,0,0,0,1.1-2.8,3.122,3.122,0,0,0-1-2.6,4.728,4.728,0,0,0-3.2-.8H304v7h2.1Zm0-8.6c2.5,0,3.7-1,3.7-3.1a2.531,2.531,0,0,0-.9-2.2,5.5,5.5,0,0,0-3-.7h-2v6h2.2Zm14.7,8.6h2V97h-6V95.3h2V80.7H317V79h5.8a7.41,7.41,0,0,1,4.5,1.1,4,4,0,0,1,1.4,3.4c0,2.6-1.4,4.3-4.2,4.9v.1c.3.2.6.5,1,.8a7.609,7.609,0,0,1,1.3,2l2.2,4h1.7V97h-3.2c-.3-.6-.5-1.1-.8-1.6-.2-.5-.5-.9-.7-1.3l-1.2-2.3a11.821,11.821,0,0,0-1.1-1.8,9.016,9.016,0,0,0-.9-1,2.5,2.5,0,0,0-1.3-.4h-.8v6.7Zm1.6-8.3a5.576,5.576,0,0,0,3.2-.8,2.97,2.97,0,0,0,1.1-2.5,2.719,2.719,0,0,0-1-2.4,5.9,5.9,0,0,0-3.1-.7h-1.8V87Zm11.7,1c0-2.9.6-5.2,1.9-6.8a6.133,6.133,0,0,1,5.2-2.5,5.939,5.939,0,0,1,5,2.4,10.9,10.9,0,0,1,1.8,6.7c0,3-.6,5.4-1.9,7.1a6.076,6.076,0,0,1-5.1,2.5,5.9,5.9,0,0,1-5-2.5A11.082,11.082,0,0,1,334.1,88Zm2.1-.1a10.024,10.024,0,0,0,1.3,5.7,4.131,4.131,0,0,0,3.6,1.9,3.857,3.857,0,0,0,3.5-1.9,10.024,10.024,0,0,0,1.3-5.7,10.441,10.441,0,0,0-1.2-5.5,4.331,4.331,0,0,0-7.1-.1C336.6,83.5,336.2,85.4,336.2,87.9Zm30.4,6.4,4-13.7h-1.7V79h5.3v1.7h-1.7l-5.1,16.5h-1.9l-3.2-9.8h-.1l-3.1,9.8h-1.9L352,80.7h-1.6V79h5.3v1.7H354l4.2,13.7h.1l3.1-9.6-1.3-4h-1.8V79H364v1.7h-2l4.6,13.6Zm22.6-13.6h-2V79h5.9v1.7h-2V97h-1.9L381,83h-.1V95.4h2V97H377V95.3h2V80.7h-2V79h4l8.1,13.9h.1Z" fill="#f6ebe7"/><path d="M309.2,87.3h-.5v.4l.4.1Zm1.8,8.3-.3-.4h0ZM300,97h-.5v.5h.5Zm0-1.7v-.5h-.5v.5Zm2,0v.5h.5v-.5Zm0-14.6h.5v-.5H302Zm-2,0h-.5v.5h.5Zm0-1.7v-.5h-.5V79Zm10.5,1.1-.3.4Zm.8,5.6-.4-.3h0Zm-2.1,1.5-.2-.5-.3.1v.4Zm.2,7.3.3.4h0Zm.1-5.3-.3.4h0Zm-5.5-.9v-.5h-.5v.5Zm0,7h-.5v.5h.5Zm4.9-14-.3.4h0Zm-4.9-.6v-.5h-.5v.5Zm0,6h-.5v.5h.5Zm5.1,1.1a4.32,4.32,0,0,1,2.3,1.4l.8-.6a4.568,4.568,0,0,0-2.9-1.8Zm2.3,1.4a4.093,4.093,0,0,1,.7,2.5h1a5.384,5.384,0,0,0-.9-3.1Zm.8,2.5a4.26,4.26,0,0,1-1.5,3.5l.7.8a5.3,5.3,0,0,0,1.8-4.2h-1Zm-1.5,3.5a6.823,6.823,0,0,1-4.6,1.3v1a8.165,8.165,0,0,0,5.3-1.5Zm-4.6,1.3H300v1h6.1Zm-5.6.5V95.3h-1V97Zm-.5-1.2h2v-1h-2Zm2.5-.5V80.7h-1V95.4h1ZM302,80.2h-2v1h2Zm-1.5.5V79h-1v1.7Zm-.5-1.2h6.1v-1H300Zm6.1,0a6.792,6.792,0,0,1,4.1,1l.6-.8a7.967,7.967,0,0,0-4.7-1.2Zm4.1,1a3.231,3.231,0,0,1,1.2,2.8h1a4.375,4.375,0,0,0-1.6-3.6Zm1.3,2.8a3.8,3.8,0,0,1-.6,2.2l.8.5a4.953,4.953,0,0,0,.7-2.7Zm-.6,2.1a3.25,3.25,0,0,1-1.8,1.3l.3.9a4.514,4.514,0,0,0,2.3-1.7Zm-2.2,1.8h0l1,.1v-.1Zm-2.6,8.6a6.178,6.178,0,0,0,3.6-.9l-.6-.8a5.5,5.5,0,0,1-3,.7Zm3.6-.9a3.815,3.815,0,0,0,1.3-3.2h-1a2.7,2.7,0,0,1-.9,2.4Zm1.3-3.2a3.773,3.773,0,0,0-1.2-3l-.6.8a2.653,2.653,0,0,1,.8,2.2Zm-1.2-2.9a5.215,5.215,0,0,0-3.5-.9v1a5.108,5.108,0,0,1,2.9.7Zm-3.5-1H304v1h2.3Zm-2.8.5v7h1v-7Zm.5,7.5h2.1v-1H304Zm2.1-8.6a4.771,4.771,0,0,0,3.1-.9,3.218,3.218,0,0,0,1.1-2.7h-1a2.268,2.268,0,0,1-.8,1.9,3.923,3.923,0,0,1-2.5.7v1Zm4.3-3.6a2.909,2.909,0,0,0-1.1-2.6l-.6.8a2.168,2.168,0,0,1,.7,1.8h1Zm-1.2-2.7a6.182,6.182,0,0,0-3.3-.8v1a4.474,4.474,0,0,1,2.7.6Zm-3.2-.7h-2v1h2Zm-2.5.5v6h1v-6Zm.5,6.5h2.1v-1H304Zm16.8,8.1h-.5v.5h.5Zm2,0h.5v-.5h-.5Zm0,1.7v.5h.5V97Zm-6,0h-.5v.5h.5Zm0-1.7v-.5h-.5v.5Zm2,0v.5h.5v-.5Zm0-14.6h.5v-.5h-.5Zm-1.8,0h-.5v.5h.5Zm0-1.7v-.5h-.5V79Zm10.3,1.1.3-.4h0Zm-2.7,8.3-.1-.5-.4.1v.4Zm0,0h-.5v.3l.3.1Zm1,.9-.4.3h0Zm1.3,2-.4.2h0Zm2.2,4-.4.2.1.3h.3Zm1.7,0h.5v-.5h-.5Zm0,1.7v.5h.5V97Zm-3.2,0-.5.2.1.3h.3V97Zm-.8-1.6.4-.2h0Zm-.7-1.3-.4.2h0Zm-1.2-2.3.4-.2h0ZM323.8,90l.4-.3Zm-.9-1,.3-.4h0Zm-2.1-.3v-.5h-.5v.5Zm4.8-2.5.3.4h0Zm.1-4.9-.3.4h0Zm-4.9-.6v-.5h-.5v.5Zm0,6.3h-.5v.5h.5Zm0,8.8h2v-1h-2Zm1.5-.5V97h1V95.3Zm.5,1.2h-6v1h6Zm-5.5.5V95.3h-1V97Zm-.5-1.2h2v-1h-2Zm2.5-.5V80.7h-1V95.4h1Zm-.5-15.1H317v1h1.8Zm-1.3.5V79h-1v1.7Zm-.5-1.2h5.8v-1H317Zm5.8,0a7.153,7.153,0,0,1,4.2,1l.6-.8c-1.1-.9-2.7-1.2-4.8-1.2v1Zm4.2,1a3.51,3.51,0,0,1,1.2,3h1a4.643,4.643,0,0,0-1.6-3.8Zm1.3,3a4.375,4.375,0,0,1-.9,2.9,4.983,4.983,0,0,1-2.9,1.5l.2,1a5.888,5.888,0,0,0,3.4-1.8,5.13,5.13,0,0,0,1.2-3.5h-1Zm-4.2,4.9h0l1,.1v-.1Zm.2.5c.3.1.5.4.9.7l.7-.7a4.36,4.36,0,0,0-1.1-.9Zm.9.7a7.82,7.82,0,0,1,1.2,1.9l.9-.5a12.12,12.12,0,0,0-1.4-2.2Zm1.3,1.9,2.2,4,.9-.5-2.2-4Zm2.6,4.3h1.7v-1h-1.7Zm1.2-.5V97h1V95.3Zm.5,1.2h-3.2v1h3.2Zm-2.8.3a11.876,11.876,0,0,0-.8-1.6l-.9.5c.2.5.5,1,.8,1.6Zm-.8-1.6c-.2-.5-.5-.9-.7-1.3l-.9.5c.2.4.5.8.7,1.3Zm-.7-1.3-1.2-2.3-.9.5,1.2,2.3Zm-1.2-2.3a11.821,11.821,0,0,0-1.1-1.8l-.8.6a19.415,19.415,0,0,1,1,1.7Zm-1.1-1.8a5.241,5.241,0,0,0-1-1.1l-.6.8a2.361,2.361,0,0,1,.8.9Zm-1-1.2a2.767,2.767,0,0,0-1.6-.5v1a1.327,1.327,0,0,1,1,.3Zm-1.6-.4h-.8v1h.8Zm-1.3.5v6.7h1V88.7Zm2.1-1.2a5.838,5.838,0,0,0,3.5-.9l-.6-.8a5.108,5.108,0,0,1-2.9.7Zm3.5-.9a3.473,3.473,0,0,0,1.3-2.9h-1a2.336,2.336,0,0,1-.9,2.1Zm1.3-2.9a3.356,3.356,0,0,0-1.2-2.8l-.6.8c.5.3.8.9.8,2Zm-1.3-2.8a6.317,6.317,0,0,0-3.4-.8v1a4.628,4.628,0,0,1,2.8.6Zm-3.3-.7h-1.8v1h1.8Zm-2.3.5V87h1V80.7Zm.5,6.8h1.6v-1h-1.6ZM336,81.2l-.4-.3h0Zm10.1-.1-.4.3h0ZM346,94.8l-.4-.3h0Zm-10.1.1-.4.3h0Zm1.5-1.3-.4.3h0Zm7.1,0-.4-.3h0Zm.1-11.2-.4.3h0Zm-7.2-.1.4.3ZM334.6,88a10.265,10.265,0,0,1,1.8-6.5l-.8-.6c-1.4,1.8-2,4.1-2,7.1Zm1.8-6.5a5.878,5.878,0,0,1,4.8-2.3v-1a6.78,6.78,0,0,0-5.6,2.7Zm4.8-2.3a5.3,5.3,0,0,1,4.6,2.2l.8-.6a6.458,6.458,0,0,0-5.4-2.6Zm4.5,2.2a10.6,10.6,0,0,1,1.7,6.4h1a11.4,11.4,0,0,0-1.9-7Zm1.7,6.3c0,3-.6,5.2-1.8,6.8l.8.6c1.4-1.8,2-4.3,2-7.4Zm-1.8,6.8a5.438,5.438,0,0,1-4.7,2.3v1a6.6,6.6,0,0,0,5.5-2.7Zm-4.7,2.3a5.381,5.381,0,0,1-4.6-2.3l-.8.6a6.291,6.291,0,0,0,5.4,2.7Zm-4.5-2.2a10.578,10.578,0,0,1-1.8-6.6h-1c0,3,.6,5.4,2,7.2Zm-.7-6.7a11.614,11.614,0,0,0,1.3,6l.8-.5a9.819,9.819,0,0,1-1.2-5.4h-.9Zm1.3,5.9a4.734,4.734,0,0,0,4,2.2V95a3.854,3.854,0,0,1-3.2-1.7Zm4,2.2a4.514,4.514,0,0,0,4-2.2l-.8-.5a3.463,3.463,0,0,1-3.1,1.7v1Zm4-2.2a11.324,11.324,0,0,0,1.4-6h-1a9.97,9.97,0,0,1-1.2,5.5Zm1.3-6a10.024,10.024,0,0,0-1.3-5.7l-.8.6a9.81,9.81,0,0,1,1.1,5.2h1ZM345,82.1a4.412,4.412,0,0,0-4-2.1v1a3.366,3.366,0,0,1,3.1,1.6ZM341.1,80a4.668,4.668,0,0,0-4,2l.8.6a3.531,3.531,0,0,1,3.2-1.6ZM337,82a10.474,10.474,0,0,0-1.4,5.9h1c0-2.5.4-4.2,1.2-5.3Zm29.6,12.3v.5h.4l.1-.4Zm4-13.6.5.1.2-.6h-.7Zm-1.7,0h-.5v.5h.5Zm0-1.7v-.5h-.5V79Zm5.4,0h.5v-.5h-.5Zm0,1.7v.5h.5v-.5Zm-1.8,0v-.5h-.4l-.1.4Zm-5.1,16.5v.5h.4l.1-.4Zm-1.9,0-.5.2.1.3h.4Zm-3.2-9.8.5-.2-.1-.3h-.4Zm-.1,0v-.5h-.4l-.1.3Zm-3.1,9.8v.5h.4l.1-.3Zm-2,0-.5.2.1.3h.4Zm-5.2-16.5.5-.2-.1-.3h-.4Zm-1.6,0h-.5v.5h.5Zm0-1.7v-.5h-.5V79Zm5.3,0h.5v-.5h-.5Zm0,1.7v.5h.5v-.5Zm-1.6,0v-.5h-.7l.2.6Zm4.2,13.6-.5.1.1.4h.4Zm.1,0v.5h.4l.1-.3Zm3.1-9.6.5.2.1-.2-.1-.2Zm-1.4-4,.5-.2-.1-.3H360Zm-1.7,0h-.5v.5h.5Zm0-1.7v-.5h-.5V79Zm5.6,0h.5v-.5h-.5Zm0,1.7v.5h.5v-.5Zm-1.9,0v-.5h-.7l.2.7Zm4.5,13.6-.5.2.1.3h.4Zm.6.2,4-13.7-1-.3-4,13.7Zm3.5-14.3h-1.7v1h1.7Zm-1.2.5V79h-1v1.7Zm-.5-1.2h5.3v-1h-5.3Zm4.9-.5v1.7h1V79Zm.5,1.2h-1.7v1h1.7Zm-2.2.3L366.9,97l1,.3L373,80.8Zm-4.7,16.2h-1.9v1h1.9ZM366,97l-3.2-9.8-1,.3,3.2,9.8Zm-3.7-10.1h0l-.1,1h.1Zm-.6.3L358.6,97l1,.3,3.1-9.8Zm-2.6,9.5h-1.9v1h1.9Zm-1.5.3-5.2-16.5-1,.3,5.2,16.5Zm-5.7-16.8h-1.6v1h1.6Zm-1.1.5V79h-1v1.7Zm-.5-1.2h5.3v-1h-5.3Zm4.8-.5v1.7h1V79Zm.5,1.2H354v1h1.6Zm-2.1.6,4.2,13.7,1-.3-4.2-13.7Zm4.7,14h0l.1-1h-.1Zm.6-.3,3.1-9.6-1-.3-3.1,9.6Zm3.1-10-1.3-4-.9.3,1.3,4ZM360,80.2h-1.8v1H360Zm-1.2.5V79h-1v1.7Zm-.5-1.2H364v-1h-5.7Zm5.1-.5v1.7h1V79Zm.5,1.2H362v1h1.9Zm-2.3.6,4.5,13.7,1-.3-4.5-13.7Zm4.9,14h0l.1-1h-.1Zm22.7-14.1h.5v-.5h-.5Zm-2,0h-.5v.5h.5Zm0-1.7v-.5h-.5V79Zm5.8,0h.5v-.5H393Zm0,1.7v.5h.5v-.5Zm-2,0v-.5h-.5v.5ZM391,97v.5h.5V97Zm-1.9,0-.4.3.1.2h.3ZM381,83l.4-.3-.1-.2H381Zm-.1,0v-.5h-.5V83Zm0,12.3h-.5v.5h.5Zm2,0h.5v-.5h-.5Zm0,1.7v.5h.5V97ZM377,97h-.5v.5h.5Zm0-1.7v-.5h-.5v.5Zm2,0v.5h.5v-.5Zm0-14.6h.5v-.5H379Zm-2,0h-.5v.5h.5Zm0-1.7v-.5h-.5V79Zm4,0,.4-.3-.1-.2H381Zm8.1,13.9-.4.3.1.2h.3Zm.1,0v.5h.5v-.5Zm0-12.7h-2v1h2Zm-1.5.5V79h-1v1.7Zm-.5-1.2h5.9v-1h-5.9Zm5.3-.5v1.7h1V79Zm.5,1.2h-2v1h2Zm-2.5.5V97h1V80.7Zm.5,15.8h-1.9v1H391Zm-1.5.2-8.1-14-.9.5,8.1,14ZM381,82.5h0l-.1,1h.1Zm-.6.5V95.4h1V83Zm.5,12.8h2v-1h-2Zm1.5-.5V97h1V95.3Zm.5,1.2H377v1h5.9Zm-5.4.5V95.3h-1V97Zm-.5-1.2h2v-1h-2Zm2.5-.5V80.7h-1V95.4h1ZM379,80.2h-2v1h2Zm-1.5.5V79h-1v1.7Zm-.5-1.2h4v-1h-4Zm3.6-.2,8.1,13.9.9-.5-8.1-13.9Zm8.5,14.1h0l.1-1h-.1Zm.6-.5V80.7h-1V92.9h1Z" fill="#f7f0ea"/><rect width="18" height="31" transform="translate(338 122)" fill="none"/><path d="M322,170a2.165,2.165,0,0,1-2,2.1,26.644,26.644,0,0,0-12.1,4.6,2.26,2.26,0,0,1-2.9-.2,1.819,1.819,0,0,1,.2-2.7,29.959,29.959,0,0,1,14.8-5.7A1.864,1.864,0,0,1,322,170Z" fill-rule="evenodd"/><path d="M386.6,167.5a2.147,2.147,0,0,1,2.9-.2,27.431,27.431,0,0,0,12.1,4.6,2.165,2.165,0,0,1,2,2.1,1.864,1.864,0,0,1-2,1.9,29.185,29.185,0,0,1-14.8-5.6A1.939,1.939,0,0,1,386.6,167.5Z" fill-rule="evenodd"/><path d="M518.4,136.9a17.61,17.61,0,0,0-3.3.3c-4,.7-8.6-.2-10.8-3.6-2.3-3.5-1.2-8.2,2.7-9.5a34.263,34.263,0,0,1,11-1.8,30,30,0,0,1,24.2,11.9c7,8.8,8,17.9,4,25.4-3.6,6.8-10.6,11-16.9,12.5a58.754,58.754,0,0,0-10.9,3.9c-.6.3-1.1.6-1.6.8-3.6,1.9-8.7,2.9-12.3.9s-4.8-6.7-1.7-9.3a39.1,39.1,0,0,1,8.9-5.5,79.257,79.257,0,0,1,13.8-5c3.4-.8,6.4-3,7.6-5.3.9-1.6,1.6-4.6-2.4-9.6C526.8,138.2,522.4,136.9,518.4,136.9Z" fill="#ff5757" fill-rule="evenodd"/><ellipse cx="8.7" cy="8.9" rx="8.7" ry="8.9" transform="translate(482.739 194.896) rotate(-62.702)" fill="#ff5757"/><rect width="69.7" height="103" transform="matrix(0.464, -0.886, 0.886, 0.464, 575.029, 89.136)" fill="#ff9255"/><rect width="18" height="8" transform="translate(677.483 71.209) rotate(-59.103)" fill="#ffdc22"/><path d="M621.2,29.3c9,.6,25.1,14.9,32,21.9l-32.4,61.7c-14.2-22.5-32.4-26.7-39.8-26l30.3-57.7C610.9,29,612.2,28.7,621.2,29.3Z" fill="#fff"/><path d="M689.3,65c-5.6-7-26.5-12.2-36.2-13.8L636.9,82l-16.2,30.9c26.6-1.1,40.4,11.5,44,17.9L695,73.1C695.4,73.3,694.9,72,689.3,65Z" fill="#fff"/><path d="M621.2,29.3c9,.6,25.1,14.9,32,21.9l-32.4,61.7c-14.2-22.5-32.4-26.7-39.8-26l30.3-57.7C610.9,29,612.2,28.7,621.2,29.3Z" fill="none" stroke="#e9e9e9" stroke-width="1"/><path d="M689.3,65c-5.6-7-26.5-12.2-36.2-13.8L636.9,82l-16.2,30.9c26.6-1.1,40.4,11.5,44,17.9L695,73.1C695.4,73.3,694.9,72,689.3,65Z" fill="none" stroke="#e9e9e9" stroke-width="1"/><path d="M20,254l60.5-21,22.3,85.4L56.5,334.5Z" fill="#fff"/><path d="M25.7,258.3,78.6,240l20.1,76.6L58.2,330.7Z" fill="#e3c3ac"/><circle cx="3.5" cy="3.5" r="3.5" transform="translate(54.3 315.2)" fill="#272624"/><circle cx="3.5" cy="3.5" r="3.5" transform="translate(58 307.5)" fill="#272624"/><circle cx="3.5" cy="3.5" r="3.5" transform="translate(75.7 306.7)" fill="#272624"/><circle cx="3.5" cy="3.5" r="3.5" transform="translate(90.6 310)" fill="#272624"/><circle cx="3.5" cy="3.5" r="3.5" transform="translate(85.2 303.4)" fill="#272624"/><circle cx="3.5" cy="3.5" r="3.5" transform="translate(69 302.7)" fill="#272624"/><circle cx="3.5" cy="3.5" r="3.5" transform="translate(78.5 299.4)" fill="#272624"/><circle cx="3.5" cy="3.5" r="3.5" transform="translate(85 293.9)" fill="#272624"/><circle cx="3.5" cy="3.5" r="3.5" transform="translate(49.8 305.1)" fill="#272624"/><circle cx="3.5" cy="3.5" r="3.5" transform="translate(62.9 318.5)" fill="#272624"/><circle cx="3.5" cy="3.5" r="3.5" transform="translate(72.3 315.3)" fill="#272624"/><circle cx="3.5" cy="3.5" r="3.5" transform="translate(82.7 311.7)" fill="#272624"/><circle cx="3.5" cy="3.5" r="3.5" transform="translate(65.3 310.3)" fill="#272624"/><path d="M26.1,238.2l6.6-4.2,52.9,82.8-10.8-2.9Z" fill="#707070"/><path d="M26.1,238.2l6.6-4.2,52.9,82.8-10.8-2.9Z" fill="url(#d)"/><path d="M33.3,259.9h0a2.409,2.409,0,0,1,3.2,1.2L43,275.2a2.409,2.409,0,0,1-1.2,3.2h0a2.409,2.409,0,0,1-3.2-1.2l-6.5-14.1A2.5,2.5,0,0,1,33.3,259.9Z" fill="#fff"/><path d="M43.5,281l.2-.1a2.278,2.278,0,0,1,3,1.1h0a2.278,2.278,0,0,1-1.1,3l-.2.1a2.278,2.278,0,0,1-3-1.1h0A2.175,2.175,0,0,1,43.5,281Z" fill="#fff"/><path d="M676.6,209l-68.2,36.2a7.065,7.065,0,0,1-9.5-2.9l-1.1-2.1a7.065,7.065,0,0,1,2.9-9.5l68.2-36.2Z" fill="#fa9191"/><path d="M676.6,209l-66.3,35.2-7.7-14.4,66.3-35.2Z" fill="#fad091"/><path d="M674.7,205.3l-66.3,35.2-.7-1.2L674,204.1Z" fill="#efaf50"/><path d="M672.3,199.4,606,234.6l-.7-1.2,66.3-35.2Z" fill="#efaf50"/><path d="M610.3,244.3l3.1-1.6-7.7-14.4-3.1,1.6Z" fill="#c7c7c7"/><path d="M690.8,192.4l-14.3,16.9-7.7-14.5Z" fill="#e3c3ac"/><rect width="5.6" height="4.9" transform="translate(684.692 192.801) rotate(-27.962)"/><g clip-path="url(#e)"><path d="M143.9,228.5a3.239,3.239,0,0,1-1.9,1.9,3.6,3.6,0,0,1-2.7,0l-5.5-2.2-2.2,5.5a3.239,3.239,0,0,1-1.9,1.9,3.185,3.185,0,0,1-2.7,0,3.239,3.239,0,0,1-1.9-1.9,3.185,3.185,0,0,1,0-2.7l2.2-5.5-5.5-2.2a3.239,3.239,0,0,1-1.9-1.9,3.185,3.185,0,0,1,0-2.7,3.239,3.239,0,0,1,1.9-1.9,3.188,3.188,0,0,1,2.7,0L130,219l2.2-5.5a3.239,3.239,0,0,1,1.9-1.9,3.185,3.185,0,0,1,2.7,0,3.239,3.239,0,0,1,1.9,1.9,3.188,3.188,0,0,1,0,2.7l-2.2,5.5,5.5,2.2a3.239,3.239,0,0,1,1.9,1.9A3.185,3.185,0,0,1,143.9,228.5Zm10.5-35.4L136.8,186a3.6,3.6,0,0,0-2.7,0,3.531,3.531,0,0,0-1.9,1.9,3.6,3.6,0,0,0,0,2.7,3.531,3.531,0,0,0,1.9,1.9l17.6,7.1a3.6,3.6,0,0,0,2.7,0,3.531,3.531,0,0,0,1.9-1.9,3.6,3.6,0,0,0,0-2.7A3,3,0,0,0,154.4,193.1Zm-.1,38.4,17.6,7.1a3.6,3.6,0,0,0,2.7,0,3.536,3.536,0,0,0,1.9-1.9,3.6,3.6,0,0,0,0-2.7,3.531,3.531,0,0,0-1.9-1.9L157,225a3.6,3.6,0,0,0-2.7,0,3.531,3.531,0,0,0-1.9,1.9,3.6,3.6,0,0,0,0,2.7A3.531,3.531,0,0,0,154.3,231.5Zm16.7,9.3-17.6-7.1a3.6,3.6,0,0,0-2.7,0,3.531,3.531,0,0,0-1.9,1.9,3.6,3.6,0,0,0,0,2.7,3.536,3.536,0,0,0,1.9,1.9l17.6,7.1a3.6,3.6,0,0,0,2.7,0,3.531,3.531,0,0,0,1.9-1.9,3.6,3.6,0,0,0,0-2.7A3.239,3.239,0,0,0,171,240.8Zm-8.4-30.2a3.531,3.531,0,0,0,1.9,1.9,3.6,3.6,0,0,0,2.7,0l6-2.5,2.5,6a3.9,3.9,0,0,0,1.9,1.9,4.162,4.162,0,0,0,2.7,0,3.531,3.531,0,0,0,1.9-1.9,3.6,3.6,0,0,0,0-2.7l-2.5-6,6-2.5a3.9,3.9,0,0,0,1.9-1.9,4.162,4.162,0,0,0,0-2.7,3.531,3.531,0,0,0-1.9-1.9,3.188,3.188,0,0,0-2.7,0l-6,2.5-2.5-6a3.9,3.9,0,0,0-1.9-1.9,4.162,4.162,0,0,0-2.7,0,3.531,3.531,0,0,0-1.9,1.9,3.188,3.188,0,0,0,0,2.7l2.5,6-6,2.5a3.531,3.531,0,0,0-1.9,1.9A3.187,3.187,0,0,0,162.6,210.6Z" fill="#ff9052"/></g><path d="M463.5,319c-.8-5.2-2.4-16.2-2-19s-4.2-5.2-6.5-6v4c-68.4,42-180.2,20.2-227.5,4v-5.5c-3.5.5-4.5,7.5-6,12-1.2,3.6-.5,8.5,0,10.5m242,0C442.7,329,390,344,348,341s-106.5-8.4-126.5-22m242,0L476,350.5l-2.5,6.5-265,2.5,13-40.5" fill="none" stroke="#9d0000" stroke-width="3"/><path d="M373.9,230.886a35.855,35.855,0,0,1-30.6,3.3" transform="translate(0 -3)" fill="none" stroke="#000" stroke-linecap="round" stroke-miterlimit="10" stroke-width="3" fill-rule="evenodd"/></g></svg>