<?xml version="1.0" encoding="utf-8"?>
<!-- Generator: Adobe Illustrator 24.3.0, SVG Export Plug-In . SVG Version: 6.00 Build 0)  -->
<svg version="1.1" id="Layer_1" xmlns="http://www.w3.org/2000/svg" xmlns:xlink="http://www.w3.org/1999/xlink" x="0px" y="0px"
	 viewBox="0 0 728 350" style="enable-background:new 0 0 728 350;" xml:space="preserve">
<style type="text/css">
	.st0{clip-path:url(#SVGID_2_);}
	.st1{fill:#FAFCFD;}
	.st2{fill:none;stroke:url(#SVGID_3_);stroke-width:12;}
	.st3{fill:#FFDA55;}
	.st4{fill:#FFDA55;filter:url(#Adobe_OpacityMaskFilter);}
	.st5{mask:url(#mask0_1_);}
	.st6{fill:none;stroke:#EAB735;stroke-width:4;}
	.st7{fill:none;}
	.st8{fill:#FF9255;}
	.st9{fill:#FFDA55;filter:url(#Adobe_OpacityMaskFilter_1_);}
	.st10{mask:url(#mask1_1_);}
	.st11{fill:none;stroke:#EA3F35;stroke-width:4;}
	.st12{fill:none;stroke:#C07F5F;stroke-width:7.6;}
	.st13{fill:#BE7958;}
	.st14{fill:url(#SVGID_4_);filter:url(#Adobe_OpacityMaskFilter_2_);}
	.st15{mask:url(#mask2_1_);}
	.st16{fill:#221009;}
	.st17{fill:#E3C3AC;}
	.st18{fill-rule:evenodd;clip-rule:evenodd;fill:#221009;}
	.st19{fill:none;stroke:#D01C23;stroke-width:5;}
	.st20{fill:#D01C23;}
	.st21{fill:#FFFFFF;}
	.st22{fill:#161513;}
	.st23{fill:#161513;filter:url(#Adobe_OpacityMaskFilter_3_);}
	.st24{mask:url(#mask3_1_);}
	.st25{fill:#C91926;}
	.st26{fill:#F7F0EA;}
	.st27{fill:#2B201C;}
	.st28{fill:url(#SVGID_5_);}
	.st29{fill:url(#SVGID_6_);}
	.st30{fill:#D1232A;stroke:#000000;}
	.st31{fill:#F6EBE7;}
	.st32{fill-rule:evenodd;clip-rule:evenodd;}
	.st33{fill-rule:evenodd;clip-rule:evenodd;fill:#FF5757;}
	.st34{fill:#FF5757;}
	.st35{fill:#FFDC22;}
	.st36{fill:none;stroke:#E9E9E9;}
	.st37{fill:#272624;}
	.st38{fill:#707070;}
	.st39{fill:url(#SVGID_7_);}
	.st40{fill:#FA9191;}
	.st41{fill:#FAD091;}
	.st42{fill:#EFAF50;}
	.st43{fill:#C7C7C7;}
	.st44{fill:#E3C3AC;filter:url(#Adobe_OpacityMaskFilter_4_);}
	.st45{mask:url(#mask4_1_);}
	.st46{clip-path:url(#SVGID_9_);}
	.st47{fill:#FF9052;}
	.st48{fill:none;stroke:#9D0000;stroke-width:3;}
	.st49{fill-rule:evenodd;clip-rule:evenodd;fill:none;stroke:#000000;stroke-width:3;stroke-linecap:round;stroke-miterlimit:10;}
</style>
<g>
	<defs>
		<rect id="SVGID_1_" width="728" height="350"/>
	</defs>
	<clipPath id="SVGID_2_">
		<use xlink:href="#SVGID_1_"  style="overflow:visible;"/>
	</clipPath>
	<g class="st0">
		<rect class="st1" width="728" height="350"/>
		
			<linearGradient id="SVGID_3_" gradientUnits="userSpaceOnUse" x1="221.0001" y1="486" x2="221.0001" y2="105" gradientTransform="matrix(1 0 0 -1 0 352)">
			<stop  offset="0" style="stop-color:#FFA170"/>
			<stop  offset="1" style="stop-color:#FFDA58"/>
		</linearGradient>
		<path class="st2" d="M385.7,38.4c52.2,3.2,91.6-45,90.3-62.9l-29,5.7L15.5-134L-33.3,25.9c-3.6,75.6,7.7,249.4,8.6,217.2
			c1.1-40.3,49.3-112.8,131.5-115.7c82.2-2.8,53.8-51.6,106.5-89C266.1,0.9,320.5,34.4,385.7,38.4z"/>
		<path class="st3" d="M296.3,206c22-55.8,30.9-168.4-109.5-172C170.3,87.5,169.1,196.8,296.3,206z"/>
		<defs>
			<filter id="Adobe_OpacityMaskFilter" filterUnits="userSpaceOnUse" x="168.3" y="23.9" width="165.8" height="190.9">
				<feColorMatrix  type="matrix" values="1 0 0 0 0  0 1 0 0 0  0 0 1 0 0  0 0 0 1 0"/>
			</filter>
		</defs>
		<mask maskUnits="userSpaceOnUse" x="168.3" y="23.9" width="165.8" height="190.9" id="mask0_1_">
			<path class="st4" d="M296.3,206c22-55.8,30.9-168.4-109.5-172C170.3,87.5,169.1,196.8,296.3,206z"/>
		</mask>
		<g class="st5">
			<path class="st6" d="M185.5,34l26.6,32.5 M332.5,213.5l-52-63.5 M212.1,66.5l13.4-42 M212.1,66.5L236.3,96 M236.3,96l-67.8-7
				 M236.3,96l18.8,23 M255.1,119l28.4-73 M255.1,119l25.4,31 M280.5,150l-95-6.5"/>
		</g>
		<g>
			
				<rect x="-49.2" y="-67.4" transform="matrix(0.9865 -0.1638 0.1638 0.9865 -21.4133 33.3847)" class="st7" width="482" height="428"/>
		</g>
		<path class="st8" d="M409.8,391.4c59,10.8,171.2-2.4,147.5-140.8C501.6,244.8,394.1,264.9,409.8,391.4z"/>
		<defs>
			<filter id="Adobe_OpacityMaskFilter_1_" filterUnits="userSpaceOnUse" x="407.9" y="243.2" width="166.4" height="186.5">
				<feColorMatrix  type="matrix" values="1 0 0 0 0  0 1 0 0 0  0 0 1 0 0  0 0 0 1 0"/>
			</filter>
		</defs>
		<mask maskUnits="userSpaceOnUse" x="407.9" y="243.2" width="166.4" height="186.5" id="mask1_1_">
			<path class="st9" d="M409.8,391.4c59,10.8,171.2-2.4,147.5-140.8C501.6,244.8,394.1,264.9,409.8,391.4z"/>
		</mask>
		<g class="st10">
			<path class="st11" d="M557,249.4l-26.7,32.4 M409.4,428.4l52.2-63.3 M530.3,281.8l43.8,5 M530.3,281.8L506,311.2 M506,311.2
				l-6.3-67.8 M506,311.2l-18.9,22.9 M487.1,334.2l77.1,13.7 M487.1,334.2l-25.5,30.9 M461.6,365.1l-12-94.5"/>
		</g>
		<g>
			
				<rect x="265.8" y="256.6" transform="matrix(0.9865 -0.1638 0.1638 0.9865 -70.2171 89.3403)" class="st7" width="482" height="428"/>
		</g>
		<g>
			<circle class="st12" cx="500.5" cy="314.5" r="10.5"/>
		</g>
		<circle class="st12" cx="346.5" cy="191.5" r="10.5"/>
		<g>
			<path class="st13" d="M193,421.2c0,0,29.5-96.6,37.2-135.4c7.6-38.8,16.7-90.6,16.7-90.6s-47.7-33.4-2.3-46.2c0,0,10-2.8,23.3,0
				c0,0,54-61.7,151.4-8.5c0,0,31.8,0.7,37.1,10.7c5.3,10,1.5,22.4-10.2,30.3c0,0,9.1,96.9,9.1,111.8c0,15,36.5,112.4,57.8,127.8
				C534.4,436.6,193,421.2,193,421.2z"/>
		</g>
		<defs>
			<filter id="Adobe_OpacityMaskFilter_2_" filterUnits="userSpaceOnUse" x="33" y="-26" width="624.1" height="600.7">
				<feColorMatrix  type="matrix" values="1 0 0 0 0  0 1 0 0 0  0 0 1 0 0  0 0 0 1 0"/>
			</filter>
		</defs>
		<mask maskUnits="userSpaceOnUse" x="33" y="-26" width="624.1" height="600.7" id="mask2_1_">
			
				<linearGradient id="SVGID_4_" gradientUnits="userSpaceOnUse" x1="436.8049" y1="201.0702" x2="314.3049" y2="-57.4838" gradientTransform="matrix(1 0 0 -1 0 352)">
				<stop  offset="0" style="stop-color:#D7987B"/>
				<stop  offset="1" style="stop-color:#B97352"/>
			</linearGradient>
			<path class="st14" d="M193,421.2c0,0,29.5-96.6,37.2-135.4c7.6-38.8,16.7-90.6,16.7-90.6s-47.7-33.4-2.3-46.2c0,0,10-2.8,23.3,0
				c0,0,54-61.7,151.4-8.5c0,0,31.8,0.7,37.1,10.7c5.3,10,1.5,22.4-10.2,30.3c0,0,9.1,96.9,9.1,111.8c0,15,36.5,112.4,57.8,127.8
				C534.4,436.6,193,421.2,193,421.2z"/>
		</mask>
		<g class="st15">
			<g>
				<rect x="131.1" y="33.3" transform="matrix(0.456 -0.89 0.89 0.456 -56.4387 456.3641)" class="st7" width="428" height="482"/>
			</g>
		</g>
		<path class="st16" d="M327.2,190.7c0,0-3.7-7.3-11.4-1.5c-7.7,5.9-5.5,11.4,1.8,10.3C324.9,198.4,328.1,195.5,327.2,190.7z"/>
		<path class="st16" d="M382.2,190.7c0,0,3.7-7.3,11.4-1.5c7.7,5.9,5.5,11.4-1.8,10.3C384.4,198.4,381.2,195.5,382.2,190.7z"/>
		<path class="st16" d="M262.4,158.9c0,0-23.3-4.3-15.7,10.1c2.7,3.6,5.7,7,8.9,10.2L262.4,158.9z"/>
		<path class="st16" d="M433,154.9l8.6,13.6c0,0,9.4-6.4,7.2-11.6C446.6,151.7,439,152.7,433,154.9z"/>
		<path class="st17" d="M358.8,279.3c0,0-14.7-0.5-22.8-5.5c-8.1-5-22.8-14.8-31-33.5c0,0-7-20.1,8.4-28.6
			c15.4-8.6,64.4-10.4,78.3-1.8c0,0,15.4,4.4,12.5,23.6c-2.9,19.2-13.8,30.1-17.8,33.7C382.4,270.7,374.8,278.1,358.8,279.3z"/>
		<path class="st16" d="M368.9,205.2c0,4.5-5.6,8.2-12.5,8.2c-0.7,0-1.4,0-2.1-0.1c-0.5-0.1-1-0.1-1.5-0.2c-5.1-1-8.8-4.1-8.8-7.8
			c0-4.5,5.6-8.2,12.5-8.2C363.4,197,368.9,200.7,368.9,205.2z"/>
		<path class="st18" d="M358.1,209.3c1.2,0.1,2.1,0.9,2.1,1.9l-0.2,19.9c0,1-1,1.7-2.1,1.7c-1.2-0.1-2.1-0.9-2.1-1.9l0.2-19.9
			C356,209.9,356.9,209.2,358.1,209.3z"/>
		<circle class="st19" cx="318" cy="194" r="15.5"/>
		<circle class="st19" cx="390" cy="193" r="15.5"/>
		<polygon class="st20" points="334,190.9 373.9,191.2 373.8,196.2 334,195.9 		"/>
		<ellipse transform="matrix(0.6155 -0.7881 0.7881 0.6155 -27.0327 318.5893)" class="st21" cx="313" cy="187" rx="3" ry="2"/>
		<circle class="st21" cx="309.5" cy="191.5" r="1.5"/>
		<path class="st22" d="M422,132c0,50.8-27.6,4-69,4s-81,46.8-81-4c0-50.8,33.6-92,75-92S422,81.2,422,132z"/>
		<defs>
			<filter id="Adobe_OpacityMaskFilter_3_" filterUnits="userSpaceOnUse" x="259" y="66" width="200" height="42">
				<feColorMatrix  type="matrix" values="1 0 0 0 0  0 1 0 0 0  0 0 1 0 0  0 0 0 1 0"/>
			</filter>
		</defs>
		<mask maskUnits="userSpaceOnUse" x="259" y="66" width="200" height="42" id="mask3_1_">
			<path class="st23" d="M422,132c0,50.8-29.1,0-70.5,0s-79.5,50.8-79.5,0c0-50.8,33.6-92,75-92S422,81.2,422,132z"/>
		</mask>
		<g class="st24">
			<rect x="272" y="68" class="st25" width="169" height="39"/>
			<rect x="276" y="66" class="st26" width="140" height="4"/>
			<rect x="259" y="104" class="st26" width="200" height="4"/>
		</g>
		<path class="st27" d="M269,119h156c3.3,0,6,2.7,6,6v27c0,3.3-2.7,6-6,6H269c-3.3,0-6-2.7-6-6v-27C263,121.7,265.7,119,269,119z"/>
		
			<linearGradient id="SVGID_5_" gradientUnits="userSpaceOnUse" x1="352.2832" y1="231.4445" x2="323.2832" y2="132.9445" gradientTransform="matrix(1 0 0 -1 0 352)">
			<stop  offset="0" style="stop-color:#DE2523"/>
			<stop  offset="1" style="stop-color:#211715"/>
		</linearGradient>
		<path class="st28" d="M269,119h156c3.3,0,6,2.7,6,6v27c0,3.3-2.7,6-6,6H269c-3.3,0-6-2.7-6-6v-27C263,121.7,265.7,119,269,119z"/>
		<path class="st27" d="M347,17l1.4,2.2l1.7-2l1,2.4l2-1.7l0.6,2.6l2.3-1.4l0.2,2.6l2.4-1l-0.2,2.6l2.6-0.6l-0.6,2.6l2.6-0.2l-1,2.4
			l2.6,0.2l-1.4,2.3l2.6,0.6l-1.7,2l2.4,1l-2,1.7L367,37l-2.2,1.4l2,1.7l-2.4,1l1.7,2l-2.6,0.6l1.4,2.3l-2.6,0.2l1,2.4l-2.6-0.2
			l0.6,2.6l-2.6-0.6l0.2,2.6l-2.4-1l-0.2,2.6l-2.3-1.4l-0.6,2.6l-2-1.7l-1,2.4l-1.7-2L347,57l-1.4-2.2l-1.7,2l-1-2.4l-2,1.7
			l-0.6-2.6l-2.3,1.4l-0.2-2.6l-2.4,1l0.2-2.6l-2.6,0.6l0.6-2.6l-2.6,0.2l1-2.4l-2.6-0.2l1.4-2.3l-2.6-0.6l1.7-2l-2.4-1l2-1.7
			L327,37l2.2-1.4l-2-1.7l2.4-1l-1.7-2l2.6-0.6l-1.4-2.3l2.6-0.2l-1-2.4l2.6,0.2l-0.6-2.6l2.6,0.6l-0.2-2.6l2.4,1l0.2-2.6l2.3,1.4
			l0.6-2.6l2,1.7l1-2.4l1.7,2L347,17z"/>
		
			<linearGradient id="SVGID_6_" gradientUnits="userSpaceOnUse" x1="360.3053" y1="327.5925" x2="332.3053" y2="301.0925" gradientTransform="matrix(1 0 0 -1 0 352)">
			<stop  offset="0" style="stop-color:#9E192A"/>
			<stop  offset="1" style="stop-color:#2B201C"/>
		</linearGradient>
		<path class="st29" d="M347,17l1.4,2.2l1.7-2l1,2.4l2-1.7l0.6,2.6l2.3-1.4l0.2,2.6l2.4-1l-0.2,2.6l2.6-0.6l-0.6,2.6l2.6-0.2l-1,2.4
			l2.6,0.2l-1.4,2.3l2.6,0.6l-1.7,2l2.4,1l-2,1.7L367,37l-2.2,1.4l2,1.7l-2.4,1l1.7,2l-2.6,0.6l1.4,2.3l-2.6,0.2l1,2.4l-2.6-0.2
			l0.6,2.6l-2.6-0.6l0.2,2.6l-2.4-1l-0.2,2.6l-2.3-1.4l-0.6,2.6l-2-1.7l-1,2.4l-1.7-2L347,57l-1.4-2.2l-1.7,2l-1-2.4l-2,1.7
			l-0.6-2.6l-2.3,1.4l-0.2-2.6l-2.4,1l0.2-2.6l-2.6,0.6l0.6-2.6l-2.6,0.2l1-2.4l-2.6-0.2l1.4-2.3l-2.6-0.6l1.7-2l-2.4-1l2-1.7
			L327,37l2.2-1.4l-2-1.7l2.4-1l-1.7-2l2.6-0.6l-1.4-2.3l2.6-0.2l-1-2.4l2.6,0.2l-0.6-2.6l2.6,0.6l-0.2-2.6l2.4,1l0.2-2.6l2.3,1.4
			l0.6-2.6l2,1.7l1-2.4l1.7,2L347,17z"/>
		<g>
			
				<rect x="229.5" y="-156.1" transform="matrix(0.456 -0.89 0.89 0.456 124.3397 527.3278)" class="st7" width="528.1" height="636.2"/>
		</g>
		<path class="st30" d="M221.5,319l-13,35.5l274,15l-22-59.5v-12.5l-6-3.5v3.5l-15,8.5l-27,10.5L367,322h-36.5l-62-9l-40-11.5l-3-4
			l-4,12.5V319z"/>
		<path class="st31" d="M309.2,87.3c1.2,0.3,2,0.8,2.6,1.6c0.6,0.8,0.8,1.7,0.8,2.8c0,1.6-0.5,2.9-1.6,3.9c-1.1,0.9-2.7,1.4-5,1.4
			H300v-1.7h2V80.7h-2V79h6.1c2,0,3.5,0.4,4.4,1.1c1,0.7,1.4,1.8,1.4,3.2c0,0.9-0.2,1.7-0.7,2.4C310.9,86.4,310.2,86.9,309.2,87.3
			L309.2,87.3z M306.1,95.3c1.5,0,2.6-0.3,3.3-0.8c0.7-0.6,1.1-1.5,1.1-2.8c0-1.2-0.3-2-1-2.6c-0.7-0.6-1.7-0.8-3.2-0.8H304v7H306.1
			z M306.1,86.7c2.5,0,3.7-1,3.7-3.1c0-1-0.3-1.8-0.9-2.2c-0.6-0.4-1.6-0.7-3-0.7h-2v6H306.1z M320.8,95.3h2V97h-6v-1.7h2V80.7H317
			V79h5.8c2.1,0,3.6,0.4,4.5,1.1c1,0.8,1.4,1.9,1.4,3.4c0,2.6-1.4,4.3-4.2,4.9v0.1c0.3,0.2,0.6,0.5,1,0.8c0.4,0.4,0.8,1,1.3,2l2.2,4
			h1.7V97h-3.2c-0.3-0.6-0.5-1.1-0.8-1.6c-0.2-0.5-0.5-0.9-0.7-1.3l-1.2-2.3c-0.4-0.8-0.8-1.4-1.1-1.8c-0.3-0.4-0.6-0.7-0.9-1
			c-0.3-0.2-0.8-0.4-1.3-0.4h-0.8V95.3z M322.4,87c1.4,0,2.5-0.3,3.2-0.8c0.7-0.5,1.1-1.4,1.1-2.5c0-1.1-0.3-1.9-1-2.4
			c-0.6-0.4-1.7-0.7-3.1-0.7h-1.8V87H322.4z M334.1,88c0-2.9,0.6-5.2,1.9-6.8c1.3-1.7,3-2.5,5.2-2.5c2.1,0,3.8,0.8,5,2.4
			c1.2,1.6,1.8,3.8,1.8,6.7c0,3-0.6,5.4-1.9,7.1c-1.3,1.7-3,2.5-5.1,2.5c-2.1,0-3.7-0.8-5-2.5C334.7,93.2,334.1,90.9,334.1,88z
			 M336.2,87.9c0,2.5,0.4,4.4,1.3,5.7c0.9,1.3,2.1,1.9,3.6,1.9c1.5,0,2.7-0.6,3.5-1.9c0.9-1.3,1.3-3.2,1.3-5.7
			c0-2.4-0.4-4.2-1.2-5.5c-0.8-1.2-2-1.9-3.5-1.9c-1.6,0-2.8,0.6-3.6,1.8C336.6,83.5,336.2,85.4,336.2,87.9z M366.6,94.3l4-13.7
			h-1.7V79h5.3v1.7h-1.7l-5.1,16.5h-1.9l-3.2-9.8h-0.1l-3.1,9.8h-1.9l-5.2-16.5h-1.6V79h5.3v1.7H354l4.2,13.7h0.1l3.1-9.6l-1.3-4
			h-1.8V79h5.7v1.7H362L366.6,94.3L366.6,94.3z M389.2,80.7h-2V79h5.9v1.7h-2V97h-1.9L381,83h-0.1v12.4h2V97H377v-1.7h2V80.7h-2V79
			h4l8.1,13.9h0.1V80.7z"/>
		<path class="st26" d="M309.2,87.3h-0.5v0.4l0.4,0.1L309.2,87.3z M311,95.6l-0.3-0.4l0,0L311,95.6z M300,97h-0.5v0.5h0.5V97z
			 M300,95.3v-0.5h-0.5v0.5H300z M302,95.3v0.5h0.5v-0.5H302z M302,80.7h0.5v-0.5H302V80.7z M300,80.7h-0.5v0.5h0.5V80.7z M300,79
			v-0.5h-0.5V79H300z M310.5,80.1l-0.3,0.4L310.5,80.1z M311.3,85.7l-0.4-0.3l0,0L311.3,85.7z M309.2,87.2l-0.2-0.5l-0.3,0.1v0.4
			H309.2z M309.4,94.5l0.3,0.4l0,0L309.4,94.5z M309.5,89.2l-0.3,0.4l0,0L309.5,89.2z M304,88.3v-0.5h-0.5v0.5H304z M304,95.3h-0.5
			v0.5h0.5V95.3z M308.9,81.3l-0.3,0.4l0,0L308.9,81.3z M304,80.7v-0.5h-0.5v0.5H304z M304,86.7h-0.5v0.5h0.5V86.7z M309.1,87.8
			c1.1,0.3,1.8,0.8,2.3,1.4l0.8-0.6c-0.6-0.9-1.6-1.5-2.9-1.8L309.1,87.8z M311.4,89.2c0.5,0.7,0.7,1.5,0.7,2.5h1
			c0-1.2-0.3-2.2-0.9-3.1L311.4,89.2z M312.2,91.7c0,1.5-0.5,2.7-1.5,3.5l0.7,0.8c1.2-1,1.8-2.5,1.8-4.2H312.2z M310.7,95.2
			c-0.9,0.8-2.4,1.3-4.6,1.3v1c2.3,0,4.1-0.5,5.3-1.5L310.7,95.2z M306.1,96.5H300v1h6.1V96.5z M300.5,97v-1.7h-1V97H300.5z
			 M300,95.8h2v-1h-2V95.8z M302.5,95.3V80.7h-1v14.7H302.5z M302,80.2h-2v1h2V80.2z M300.5,80.7V79h-1v1.7H300.5z M300,79.5h6.1v-1
			H300V79.5z M306.1,79.5c2,0,3.3,0.4,4.1,1l0.6-0.8c-1.1-0.8-2.7-1.2-4.7-1.2V79.5z M310.2,80.5c0.8,0.6,1.2,1.5,1.2,2.8h1
			c0-1.5-0.5-2.7-1.6-3.6L310.2,80.5z M311.5,83.3c0,0.9-0.2,1.6-0.6,2.2l0.8,0.5c0.5-0.8,0.7-1.7,0.7-2.7H311.5z M310.9,85.4
			c-0.3,0.5-0.9,1-1.8,1.3l0.3,0.9c1-0.4,1.8-0.9,2.3-1.7L310.9,85.4z M308.7,87.2L308.7,87.2l1,0.1v-0.1H308.7z M306.1,95.8
			c1.5,0,2.8-0.3,3.6-0.9l-0.6-0.8c-0.6,0.4-1.6,0.7-3,0.7V95.8z M309.7,94.9c0.9-0.7,1.3-1.8,1.3-3.2h-1c0,1.2-0.3,2-0.9,2.4
			L309.7,94.9z M311,91.7c0-1.3-0.4-2.3-1.2-3l-0.6,0.8c0.5,0.4,0.8,1.1,0.8,2.2H311z M309.8,88.8c-0.8-0.7-2-0.9-3.5-0.9v1
			c1.4,0,2.3,0.3,2.9,0.7L309.8,88.8z M306.3,87.8H304v1h2.3V87.8z M303.5,88.3v7h1v-7H303.5z M304,95.8h2.1v-1H304V95.8z
			 M306.1,87.2c1.3,0,2.4-0.3,3.1-0.9c0.8-0.6,1.1-1.6,1.1-2.7h-1c0,0.9-0.3,1.5-0.8,1.9c-0.5,0.4-1.3,0.7-2.5,0.7V87.2z
			 M310.4,83.6c0-1.1-0.3-2.1-1.1-2.6l-0.6,0.8c0.4,0.3,0.7,0.9,0.7,1.8H310.4z M309.2,80.9c-0.8-0.5-1.9-0.8-3.3-0.8v1
			c1.3,0,2.2,0.2,2.7,0.6L309.2,80.9z M306,80.2h-2v1h2V80.2z M303.5,80.7v6h1v-6H303.5z M304,87.2h2.1v-1H304V87.2z M320.8,95.3
			h-0.5v0.5h0.5V95.3z M322.8,95.3h0.5v-0.5h-0.5V95.3z M322.8,97v0.5h0.5V97H322.8z M316.8,97h-0.5v0.5h0.5V97z M316.8,95.3v-0.5
			h-0.5v0.5H316.8z M318.8,95.3v0.5h0.5v-0.5H318.8z M318.8,80.7h0.5v-0.5h-0.5V80.7z M317,80.7h-0.5v0.5h0.5V80.7z M317,79v-0.5
			h-0.5V79H317z M327.3,80.1l0.3-0.4l0,0L327.3,80.1z M324.6,88.4l-0.1-0.5l-0.4,0.1v0.4H324.6z M324.6,88.4h-0.5v0.3l0.3,0.1
			L324.6,88.4z M325.6,89.3l-0.4,0.3l0,0l0,0L325.6,89.3z M326.9,91.3l-0.4,0.2l0,0L326.9,91.3z M329.1,95.3l-0.4,0.2l0.1,0.3h0.3
			V95.3z M330.8,95.3h0.5v-0.5h-0.5V95.3z M330.8,97v0.5h0.5V97H330.8z M327.6,97l-0.5,0.2l0.1,0.3h0.3V97z M326.8,95.4l0.4-0.2l0,0
			L326.8,95.4z M326.1,94.1l-0.4,0.2l0,0L326.1,94.1z M324.9,91.8l0.4-0.2l0,0L324.9,91.8z M323.8,90l0.4-0.3L323.8,90z M322.9,89
			l0.3-0.4l0,0l0,0L322.9,89z M320.8,88.7v-0.5h-0.5v0.5H320.8z M325.6,86.2l0.3,0.4l0,0L325.6,86.2z M325.7,81.3l-0.3,0.4l0,0
			L325.7,81.3z M320.8,80.7v-0.5h-0.5v0.5H320.8z M320.8,87h-0.5v0.5h0.5V87z M320.8,95.8h2v-1h-2V95.8z M322.3,95.3V97h1v-1.7
			H322.3z M322.8,96.5h-6v1h6V96.5z M317.3,97v-1.7h-1V97H317.3z M316.8,95.8h2v-1h-2V95.8z M319.3,95.3V80.7h-1v14.7H319.3z
			 M318.8,80.2H317v1h1.8V80.2z M317.5,80.7V79h-1v1.7H317.5z M317,79.5h5.8v-1H317V79.5z M322.8,79.5c2,0,3.4,0.4,4.2,1l0.6-0.8
			c-1.1-0.9-2.7-1.2-4.8-1.2V79.5z M327,80.5c0.8,0.6,1.2,1.6,1.2,3h1c0-1.6-0.5-2.9-1.6-3.8L327,80.5z M328.3,83.5
			c0,1.2-0.3,2.2-0.9,2.9c-0.6,0.7-1.5,1.2-2.9,1.5l0.2,1c1.5-0.3,2.6-0.9,3.4-1.8c0.8-0.9,1.2-2.1,1.2-3.5H328.3z M324.1,88.4
			L324.1,88.4l1,0.1v-0.1H324.1z M324.3,88.9c0.3,0.1,0.5,0.4,0.9,0.7l0.7-0.7c-0.4-0.4-0.7-0.7-1.1-0.9L324.3,88.9z M325.2,89.6
			c0.3,0.3,0.7,0.9,1.2,1.9l0.9-0.5c-0.5-1-1-1.7-1.4-2.2L325.2,89.6z M326.5,91.5l2.2,4l0.9-0.5l-2.2-4L326.5,91.5z M329.1,95.8
			h1.7v-1h-1.7V95.8z M330.3,95.3V97h1v-1.7H330.3z M330.8,96.5h-3.2v1h3.2V96.5z M328,96.8c-0.3-0.6-0.5-1.2-0.8-1.6l-0.9,0.5
			c0.2,0.5,0.5,1,0.8,1.6L328,96.8z M327.2,95.2c-0.2-0.5-0.5-0.9-0.7-1.3l-0.9,0.5c0.2,0.4,0.5,0.8,0.7,1.3L327.2,95.2z
			 M326.5,93.9l-1.2-2.3l-0.9,0.5l1.2,2.3L326.5,93.9z M325.3,91.6c-0.4-0.8-0.8-1.4-1.1-1.8l-0.8,0.6c0.3,0.4,0.6,1,1,1.7
			L325.3,91.6z M324.2,89.8c-0.3-0.4-0.6-0.8-1-1.1l-0.6,0.8c0.3,0.2,0.6,0.5,0.8,0.9L324.2,89.8z M323.2,88.6
			c-0.4-0.3-1-0.5-1.6-0.5v1c0.5,0,0.8,0.1,1,0.3L323.2,88.6z M321.6,88.2h-0.8v1h0.8V88.2z M320.3,88.7v6.7h1v-6.7H320.3z
			 M322.4,87.5c1.5,0,2.7-0.3,3.5-0.9l-0.6-0.8c-0.6,0.4-1.5,0.7-2.9,0.7V87.5z M325.9,86.6c0.9-0.7,1.3-1.7,1.3-2.9h-1
			c0,1-0.3,1.7-0.9,2.1L325.9,86.6z M327.2,83.7c0-1.2-0.4-2.2-1.2-2.8l-0.6,0.8c0.5,0.3,0.8,0.9,0.8,2H327.2z M325.9,80.9
			c-0.8-0.5-1.9-0.8-3.4-0.8v1c1.4,0,2.3,0.2,2.8,0.6L325.9,80.9z M322.6,80.2h-1.8v1h1.8V80.2z M320.3,80.7V87h1v-6.3H320.3z
			 M320.8,87.5h1.6v-1h-1.6V87.5z M336,81.2l-0.4-0.3l0,0L336,81.2z M346.1,81.1l-0.4,0.3l0,0L346.1,81.1z M346,94.8l-0.4-0.3l0,0
			L346,94.8z M335.9,94.9l-0.4,0.3l0,0L335.9,94.9z M337.4,93.6l-0.4,0.3l0,0L337.4,93.6z M344.5,93.6l-0.4-0.3l0,0L344.5,93.6z
			 M344.6,82.4l-0.4,0.3l0,0L344.6,82.4z M337.4,82.3l0.4,0.3L337.4,82.3z M334.6,88c0-2.8,0.6-5,1.8-6.5l-0.8-0.6
			c-1.4,1.8-2,4.1-2,7.1H334.6z M336.4,81.5c1.2-1.5,2.8-2.3,4.8-2.3v-1c-2.3,0-4.2,0.9-5.6,2.7L336.4,81.5z M341.2,79.2
			c2,0,3.5,0.7,4.6,2.2l0.8-0.6c-1.3-1.7-3.1-2.6-5.4-2.6V79.2z M345.7,81.4c1.1,1.5,1.7,3.6,1.7,6.4h1c0-2.9-0.6-5.3-1.9-7
			L345.7,81.4z M347.4,87.7c0,3-0.6,5.2-1.8,6.8l0.8,0.6c1.4-1.8,2-4.3,2-7.4H347.4z M345.6,94.5c-1.2,1.6-2.7,2.3-4.7,2.3v1
			c2.3,0,4.1-0.9,5.5-2.7L345.6,94.5z M340.9,96.8c-1.9,0-3.4-0.7-4.6-2.3l-0.8,0.6c1.3,1.8,3.1,2.7,5.4,2.7V96.8z M336.4,94.6
			c-1.2-1.6-1.8-3.7-1.8-6.6h-1c0,3,0.6,5.4,2,7.2L336.4,94.6z M335.7,87.9c0,2.5,0.4,4.5,1.3,6l0.8-0.5c-0.8-1.2-1.2-3-1.2-5.4
			H335.7z M337,93.8c1,1.4,2.3,2.2,4,2.2v-1c-1.3,0-2.4-0.6-3.2-1.7L337,93.8z M341,96c1.7,0,3-0.7,4-2.2l-0.8-0.5
			c-0.8,1.2-1.8,1.7-3.1,1.7V96z M345,93.8c0.9-1.4,1.4-3.5,1.4-6h-1c0,2.5-0.4,4.3-1.2,5.5L345,93.8z M346.3,87.8
			c0-2.5-0.4-4.4-1.3-5.7l-0.8,0.6c0.7,1.1,1.1,2.8,1.1,5.2H346.3z M345,82.1c-0.9-1.4-2.2-2.1-4-2.1v1c1.4,0,2.4,0.5,3.1,1.6
			L345,82.1z M341.1,80c-1.7,0-3.1,0.7-4,2l0.8,0.6c0.7-1.1,1.8-1.6,3.2-1.6V80z M337,82c-0.9,1.3-1.4,3.3-1.4,5.9h1
			c0-2.5,0.4-4.2,1.2-5.3L337,82z M366.6,94.3v0.5h0.4l0.1-0.4L366.6,94.3z M370.6,80.7l0.5,0.1l0.2-0.6h-0.7V80.7z M368.9,80.7
			h-0.5v0.5h0.5V80.7z M368.9,79v-0.5h-0.5V79H368.9z M374.3,79h0.5v-0.5h-0.5V79z M374.3,80.7v0.5h0.5v-0.5H374.3z M372.5,80.7
			v-0.5h-0.4l-0.1,0.4L372.5,80.7z M367.4,97.2v0.5h0.4l0.1-0.4L367.4,97.2z M365.5,97.2l-0.5,0.2l0.1,0.3h0.4V97.2z M362.3,87.4
			l0.5-0.2l-0.1-0.3h-0.4V87.4z M362.2,87.4v-0.5h-0.4l-0.1,0.3L362.2,87.4z M359.1,97.2v0.5h0.4l0.1-0.3L359.1,97.2z M357.1,97.2
			l-0.5,0.2l0.1,0.3h0.4V97.2z M351.9,80.7l0.5-0.2l-0.1-0.3h-0.4V80.7z M350.3,80.7h-0.5v0.5h0.5V80.7z M350.3,79v-0.5h-0.5V79
			H350.3z M355.6,79h0.5v-0.5h-0.5V79z M355.6,80.7v0.5h0.5v-0.5H355.6z M354,80.7v-0.5h-0.7l0.2,0.6L354,80.7z M358.2,94.3
			l-0.5,0.1l0.1,0.4h0.4V94.3z M358.3,94.3v0.5h0.4l0.1-0.3L358.3,94.3z M361.4,84.7l0.5,0.2l0.1-0.2l-0.1-0.2L361.4,84.7z
			 M360,80.7l0.5-0.2l-0.1-0.3H360V80.7z M358.3,80.7h-0.5v0.5h0.5V80.7z M358.3,79v-0.5h-0.5V79H358.3z M363.9,79h0.5v-0.5h-0.5V79
			z M363.9,80.7v0.5h0.5v-0.5H363.9z M362,80.7v-0.5h-0.7l0.2,0.7L362,80.7z M366.5,94.3l-0.5,0.2l0.1,0.3h0.4V94.3z M367.1,94.5
			l4-13.7l-1-0.3l-4,13.7L367.1,94.5z M370.6,80.2h-1.7v1h1.7V80.2z M369.4,80.7V79h-1v1.7H369.4z M368.9,79.5h5.3v-1h-5.3V79.5z
			 M373.8,79v1.7h1V79H373.8z M374.3,80.2h-1.7v1h1.7V80.2z M372.1,80.5L366.9,97l1,0.3l5.1-16.5L372.1,80.5z M367.4,96.7h-1.9v1
			h1.9V96.7z M366,97l-3.2-9.8l-1,0.3l3.2,9.8L366,97z M362.3,86.9L362.3,86.9l-0.1,1h0.1V86.9z M361.7,87.2l-3.1,9.8l1,0.3l3.1-9.8
			L361.7,87.2z M359.1,96.7h-1.9v1h1.9V96.7z M357.6,97l-5.2-16.5l-1,0.3l5.2,16.5L357.6,97z M351.9,80.2h-1.6v1h1.6V80.2z
			 M350.8,80.7V79h-1v1.7H350.8z M350.3,79.5h5.3v-1h-5.3V79.5z M355.1,79v1.7h1V79H355.1z M355.6,80.2H354v1h1.6V80.2z M353.5,80.8
			l4.2,13.7l1-0.3l-4.2-13.7L353.5,80.8z M358.2,94.8L358.2,94.8l0.1-1h-0.1V94.8z M358.8,94.5l3.1-9.6l-1-0.3l-3.1,9.6L358.8,94.5z
			 M361.9,84.5l-1.3-4l-0.9,0.3l1.3,4L361.9,84.5z M360,80.2h-1.8v1h1.8V80.2z M358.8,80.7V79h-1v1.7H358.8z M358.3,79.5h5.7v-1
			h-5.7V79.5z M363.4,79v1.7h1V79H363.4z M363.9,80.2H362v1h1.9V80.2z M361.6,80.8l4.5,13.7l1-0.3l-4.5-13.7L361.6,80.8z
			 M366.5,94.8L366.5,94.8l0.1-1h-0.1V94.8z M389.2,80.7h0.5v-0.5h-0.5V80.7z M387.2,80.7h-0.5v0.5h0.5V80.7z M387.2,79v-0.5h-0.5
			V79H387.2z M393,79h0.5v-0.5H393V79z M393,80.7v0.5h0.5v-0.5H393z M391,80.7v-0.5h-0.5v0.5H391z M391,97v0.5h0.5V97H391z
			 M389.1,97l-0.4,0.3l0.1,0.2h0.3V97z M381,83l0.4-0.3l-0.1-0.2H381V83z M380.9,83v-0.5h-0.5V83H380.9z M380.9,95.3h-0.5v0.5h0.5
			V95.3z M382.9,95.3h0.5v-0.5h-0.5V95.3z M382.9,97v0.5h0.5V97H382.9z M377,97h-0.5v0.5h0.5V97z M377,95.3v-0.5h-0.5v0.5H377z
			 M379,95.3v0.5h0.5v-0.5H379z M379,80.7h0.5v-0.5H379V80.7z M377,80.7h-0.5v0.5h0.5V80.7z M377,79v-0.5h-0.5V79H377z M381,79
			l0.4-0.3l-0.1-0.2H381V79z M389.1,92.9l-0.4,0.3l0.1,0.2h0.3V92.9z M389.2,92.9v0.5h0.5v-0.5H389.2z M389.2,80.2h-2v1h2V80.2z
			 M387.7,80.7V79h-1v1.7H387.7z M387.2,79.5h5.9v-1h-5.9V79.5z M392.5,79v1.7h1V79H392.5z M393,80.2h-2v1h2V80.2z M390.5,80.7V97h1
			V80.7H390.5z M391,96.5h-1.9v1h1.9V96.5z M389.5,96.7l-8.1-14l-0.9,0.5l8.1,14L389.5,96.7z M381,82.5L381,82.5l-0.1,1h0.1V82.5z
			 M380.4,83v12.4h1V83H380.4z M380.9,95.8h2v-1h-2V95.8z M382.4,95.3V97h1v-1.7H382.4z M382.9,96.5H377v1h5.9V96.5z M377.5,97v-1.7
			h-1V97H377.5z M377,95.8h2v-1h-2V95.8z M379.5,95.3V80.7h-1v14.7H379.5z M379,80.2h-2v1h2V80.2z M377.5,80.7V79h-1v1.7H377.5z
			 M377,79.5h4v-1h-4V79.5z M380.6,79.3l8.1,13.9l0.9-0.5l-8.1-13.9L380.6,79.3z M389.1,93.4L389.1,93.4l0.1-1h-0.1V93.4z
			 M389.7,92.9V80.7h-1v12.2H389.7z"/>
		<g>
			<rect x="338" y="122" class="st7" width="18" height="31"/>
		</g>
		<path class="st32" d="M322,170c0,1.1-0.9,2-2,2.1c-5.1,0.5-9.5,2.8-12.1,4.6c-0.9,0.6-2.2,0.6-2.9-0.2s-0.7-2.1,0.2-2.7
			c3-2.2,8.4-5.2,14.8-5.7C321.1,168,322,168.9,322,170z"/>
		<path class="st32" d="M386.6,167.5c0.7-0.8,2-0.9,2.9-0.2c4.2,3,9,4.2,12.1,4.6c1.1,0.1,2,1,2,2.1c0,1.1-0.9,2-2,1.9
			c-3.7-0.3-9.7-1.7-14.8-5.6C385.9,169.6,385.9,168.3,386.6,167.5z"/>
		<path class="st33" d="M518.4,136.9c-1.1,0-2.3,0.1-3.3,0.3c-4,0.7-8.6-0.2-10.8-3.6c-2.3-3.5-1.2-8.2,2.7-9.5
			c3.2-1.1,7-1.8,11-1.8c8,0,17.1,2.9,24.2,11.9c7,8.8,8,17.9,4,25.4c-3.6,6.8-10.6,11-16.9,12.5c-2.6,0.6-6.9,2-10.9,3.9
			c-0.6,0.3-1.1,0.6-1.6,0.8c-3.6,1.9-8.7,2.9-12.3,0.9c-3.6-2-4.8-6.7-1.7-9.3c2.8-2.4,6.1-4.2,8.9-5.5c5-2.4,10.3-4.1,13.8-5
			c3.4-0.8,6.4-3,7.6-5.3c0.9-1.6,1.6-4.6-2.4-9.6C526.8,138.2,522.4,136.9,518.4,136.9z"/>
		
			<ellipse transform="matrix(0.4586 -0.8886 0.8886 0.4586 97.9139 543.0638)" class="st34" cx="494.6" cy="191.2" rx="8.7" ry="8.9"/>
		
			<rect x="602" y="30.7" transform="matrix(0.4643 -0.8857 0.8857 0.4643 268.3295 608.0737)" class="st8" width="69.7" height="103"/>
		
			<rect x="676.5" y="61.5" transform="matrix(0.5135 -0.8581 0.8581 0.5135 277.3273 620.1336)" class="st35" width="18" height="8"/>
		<g>
			<path class="st21" d="M621.2,29.3c9,0.6,25.1,14.9,32,21.9l-32.4,61.7c-14.2-22.5-32.4-26.7-39.8-26l30.3-57.7
				C610.9,29,612.2,28.7,621.2,29.3z"/>
			<path class="st21" d="M689.3,65c-5.6-7-26.5-12.2-36.2-13.8L636.9,82l-16.2,30.9c26.6-1.1,40.4,11.5,44,17.9L695,73.1
				C695.4,73.3,694.9,72,689.3,65z"/>
			<path class="st36" d="M621.2,29.3c9,0.6,25.1,14.9,32,21.9l-32.4,61.7c-14.2-22.5-32.4-26.7-39.8-26l30.3-57.7
				C610.9,29,612.2,28.7,621.2,29.3z"/>
			<path class="st36" d="M689.3,65c-5.6-7-26.5-12.2-36.2-13.8L636.9,82l-16.2,30.9c26.6-1.1,40.4,11.5,44,17.9L695,73.1
				C695.4,73.3,694.9,72,689.3,65z"/>
		</g>
		<path class="st21" d="M20,254l60.5-21l22.3,85.4l-46.3,16.1L20,254z"/>
		<path class="st17" d="M25.7,258.3L78.6,240l20.1,76.6l-40.5,14.1L25.7,258.3z"/>
		<circle class="st37" cx="57.8" cy="318.7" r="3.5"/>
		<circle class="st37" cx="61.5" cy="311" r="3.5"/>
		<circle class="st37" cx="79.2" cy="310.2" r="3.5"/>
		<circle class="st37" cx="94.1" cy="313.5" r="3.5"/>
		<circle class="st37" cx="88.7" cy="306.9" r="3.5"/>
		<circle class="st37" cx="72.5" cy="306.2" r="3.5"/>
		<circle class="st37" cx="82" cy="302.9" r="3.5"/>
		<circle class="st37" cx="88.5" cy="297.4" r="3.5"/>
		<circle class="st37" cx="53.3" cy="308.6" r="3.5"/>
		<circle class="st37" cx="66.4" cy="322" r="3.5"/>
		<circle class="st37" cx="75.8" cy="318.8" r="3.5"/>
		<circle class="st37" cx="86.2" cy="315.2" r="3.5"/>
		<circle class="st37" cx="68.8" cy="313.8" r="3.5"/>
		<path class="st38" d="M26.1,238.2l6.6-4.2l52.9,82.8l-10.8-2.9L26.1,238.2z"/>
		
			<linearGradient id="SVGID_7_" gradientUnits="userSpaceOnUse" x1="29.4905" y1="116.0056" x2="60.1522" y2="67.6146" gradientTransform="matrix(1 0 0 -1 0 352)">
			<stop  offset="0" style="stop-color:#FFFFFF"/>
			<stop  offset="1" style="stop-color:#FFFFFF;stop-opacity:0"/>
		</linearGradient>
		<path class="st39" d="M26.1,238.2l6.6-4.2l52.9,82.8l-10.8-2.9L26.1,238.2z"/>
		<g>
			<path class="st21" d="M33.3,259.9L33.3,259.9c1.2-0.6,2.6,0,3.2,1.2l6.5,14.1c0.6,1.2,0,2.6-1.2,3.2l0,0c-1.2,0.6-2.6,0-3.2-1.2
				l-6.5-14.1C31.6,261.9,32.1,260.5,33.3,259.9z"/>
		</g>
		<g>
			<path class="st21" d="M43.5,281l0.2-0.1c1.2-0.5,2.5,0,3,1.1l0,0c0.5,1.2,0,2.5-1.1,3l-0.2,0.1c-1.2,0.5-2.5,0-3-1.1l0,0
				C41.8,282.9,42.3,281.6,43.5,281z"/>
		</g>
		<path class="st40" d="M676.6,209l-68.2,36.2c-3.4,1.8-7.7,0.5-9.5-2.9l-1.1-2.1c-1.8-3.4-0.5-7.7,2.9-9.5l68.2-36.2L676.6,209z"/>
		<path class="st41" d="M676.6,209l-66.3,35.2l-7.7-14.4l66.3-35.2L676.6,209z"/>
		<path class="st42" d="M674.7,205.3l-66.3,35.2l-0.7-1.2l66.3-35.2L674.7,205.3z"/>
		<path class="st42" d="M672.3,199.4L606,234.6l-0.7-1.2l66.3-35.2L672.3,199.4z"/>
		<path class="st43" d="M610.3,244.3l3.1-1.6l-7.7-14.4l-3.1,1.6L610.3,244.3z"/>
		<path class="st17" d="M690.8,192.4l-14.3,16.9l-7.7-14.5L690.8,192.4z"/>
		<defs>
			<filter id="Adobe_OpacityMaskFilter_4_" filterUnits="userSpaceOnUse" x="684.7" y="190.2" width="7.3" height="7">
				<feColorMatrix  type="matrix" values="1 0 0 0 0  0 1 0 0 0  0 0 1 0 0  0 0 0 1 0"/>
			</filter>
		</defs>
		<mask maskUnits="userSpaceOnUse" x="684.7" y="190.2" width="7.3" height="7" id="mask4_1_">
			<path class="st44" d="M690.8,192.4l-14.3,16.9l-7.7-14.5L690.8,192.4z"/>
		</mask>
		<g class="st45">
			<rect x="685.5" y="191.2" transform="matrix(0.8833 -0.4689 0.4689 0.8833 -10.4637 345.3445)" width="5.6" height="4.9"/>
		</g>
		<g>
			<defs>
				
					<rect id="SVGID_8_" x="115.5" y="176.5" transform="matrix(0.3746 -0.9272 0.9272 0.3746 -102.875 276.4153)" width="76" height="76"/>
			</defs>
			<clipPath id="SVGID_9_">
				<use xlink:href="#SVGID_8_"  style="overflow:visible;"/>
			</clipPath>
			<g class="st46">
				<path class="st47" d="M143.9,228.5c-0.4,0.9-1,1.6-1.9,1.9s-1.9,0.4-2.7,0l-5.5-2.2l-2.2,5.5c-0.4,0.9-1,1.6-1.9,1.9
					c-0.9,0.4-1.9,0.4-2.7,0c-0.9-0.4-1.6-1-1.9-1.9c-0.4-0.9-0.4-1.9,0-2.7l2.2-5.5l-5.5-2.2c-0.9-0.4-1.6-1-1.9-1.9
					c-0.4-0.9-0.4-1.9,0-2.7c0.4-0.9,1-1.6,1.9-1.9c0.9-0.4,1.8-0.4,2.7,0l5.5,2.2l2.2-5.5c0.4-0.9,1-1.6,1.9-1.9
					c0.9-0.4,1.9-0.4,2.7,0c0.9,0.4,1.6,1,1.9,1.9c0.4,0.9,0.4,1.8,0,2.7l-2.2,5.5l5.5,2.2c0.9,0.4,1.6,1,1.9,1.9
					C144.3,226.7,144.3,227.7,143.9,228.5z M154.4,193.1l-17.6-7.1c-0.9-0.4-1.9-0.3-2.7,0c-0.9,0.4-1.6,1.1-1.9,1.9
					c-0.4,0.9-0.3,1.9,0,2.7c0.4,0.9,1.1,1.6,1.9,1.9l17.6,7.1c0.9,0.4,1.9,0.3,2.7,0c0.9-0.4,1.6-1.1,1.9-1.9
					c0.4-0.9,0.3-1.9,0-2.7C156,194.1,155.3,193.4,154.4,193.1z M154.3,231.5l17.6,7.1c0.9,0.4,1.9,0.3,2.7,0s1.6-1.1,1.9-1.9
					c0.4-0.9,0.3-1.9,0-2.7c-0.4-0.9-1.1-1.6-1.9-1.9l-17.6-7.1c-0.9-0.4-1.9-0.3-2.7,0c-0.9,0.4-1.6,1.1-1.9,1.9
					c-0.4,0.9-0.3,1.9,0,2.7C152.7,230.4,153.4,231.1,154.3,231.5z M171,240.8l-17.6-7.1c-0.9-0.4-1.9-0.3-2.7,0
					c-0.9,0.4-1.6,1.1-1.9,1.9c-0.4,0.9-0.3,1.9,0,2.7s1.1,1.6,1.9,1.9l17.6,7.1c0.9,0.4,1.9,0.3,2.7,0c0.9-0.4,1.6-1.1,1.9-1.9
					c0.4-0.9,0.3-1.9,0-2.7S171.9,241.1,171,240.8z M162.6,210.6c0.4,0.9,1.1,1.6,1.9,1.9c0.9,0.4,1.9,0.3,2.7,0l6-2.5l2.5,6
					c0.4,0.9,1.1,1.5,1.9,1.9c0.9,0.3,1.8,0.3,2.7,0c0.9-0.4,1.6-1.1,1.9-1.9s0.4-1.8,0-2.7l-2.5-6l6-2.5c0.9-0.4,1.5-1.1,1.9-1.9
					c0.3-0.9,0.3-1.8,0-2.7c-0.4-0.9-1.1-1.6-1.9-1.9c-0.9-0.4-1.8-0.4-2.7,0l-6,2.5l-2.5-6c-0.4-0.9-1.1-1.5-1.9-1.9
					c-0.9-0.3-1.8-0.3-2.7,0c-0.9,0.4-1.6,1.1-1.9,1.9c-0.4,0.9-0.4,1.8,0,2.7l2.5,6l-6,2.5c-0.9,0.4-1.6,1.1-1.9,1.9
					C162.2,208.8,162.2,209.7,162.6,210.6z"/>
			</g>
		</g>
		<path class="st48" d="M463.5,319c-0.8-5.2-2.4-16.2-2-19s-4.2-5.2-6.5-6v4c-68.4,42-180.2,20.2-227.5,4v-5.5
			c-3.5,0.5-4.5,7.5-6,12c-1.2,3.6-0.5,8.5,0,10.5 M463.5,319c-20.8,10-73.5,25-115.5,22s-106.5-8.4-126.5-22 M463.5,319l12.5,31.5
			l-2.5,6.5l-265,2.5l13-40.5"/>
		<path class="st49" d="M343.3,236.2c9-5.6,20.6-6.9,30.6-3.3"/>
	</g>
</g>
</svg>
