<svg xmlns="http://www.w3.org/2000/svg" viewBox="0 0 213.04 97.53"><defs><style>.cls-1{fill:#fbe1c3;}.cls-2{fill:#8b5e3c;}.cls-3{fill:#d6ab76;}.cls-4{fill:none;stroke:#000;stroke-miterlimit:10;}</style></defs><g id="Layer_2" data-name="Layer 2"><g id="Trace_Bear_Try_2" data-name="Trace Bear Try 2"><rect class="cls-1" width="213.04" height="97.53"/><path class="cls-2" d="M135.48,96c-.82-.41-4.5-5.73-4.5-5.73l-6.13-13.29L122,70s0-7-1.84-26c6.13-5.93-1.64-7.57-5.32-7.57-12.67-9.2-26.78-1-26.78-1l-2.66,2.25c-15.1-.12-5.88,9.69-4.13,9.17s-1.46-3-.16,0c.08,3,.2,2,.2,2l-.41,2.45L78.44,63.24,75.37,76.93,68.83,96.15Z"/><ellipse cx="92.75" cy="42.86" rx="2.16" ry="1.8" transform="translate(-6.94 20.48) rotate(-12.15)"/><path d="M113.55,43.35a1.68,1.68,0,1,1-.66-2A1.52,1.52,0,0,1,113.55,43.35Z"/><path class="cls-3" d="M105.15,48c-2.43.28-6.53.67-9.8,3.27-2.29,6.52,3.54,11.92,3.54,11.92s4,3.46,7.33,3C113.35,65.23,121.46,47.55,105.15,48Z"/><circle cx="105.79" cy="53.91" r="3.14"/><path class="cls-4" d="M101.85,60.58a6.21,6.21,0,0,0,6.54,1.33"/></g></g></svg>